<?xml version="1.0" encoding="utf-8"?>
<!-- Generator: Adobe Illustrator 21.1.0, SVG Export Plug-In . SVG Version: 6.00 Build 0)  -->
<svg version="1.1" id="Layer_1" xmlns="http://www.w3.org/2000/svg" xmlns:xlink="http://www.w3.org/1999/xlink" x="0px" y="0px"
	 viewBox="0 0 600 450" style="enable-background:new 0 0 600 450;" xml:space="preserve">
<style type="text/css">
	.st0{fill:none;enable-background:new    ;}
	.st1{font-family:'PoiretOne-Regular';}
	.st2{font-size:109.9162px;}
	.st3{font-size:87.9996px;}
	.st4{opacity:0.7;fill:#C886AE;enable-background:new    ;}
	.st5{font-size:27.4787px;}
	.st6{fill:#050505;}
	.st7{font-size:18px;}
</style>
<image style="overflow:visible;" width="591" height="436" xlink:href="D4DC52AA0BDF4BF8.png"  transform="matrix(1 0 0 1 7 25)">
</image>
<path class="st0" d="z"/>
<image style="overflow:visible;" width="533" height="229" xlink:href="D4DC52AA0BDF4BF9.png"  transform="matrix(1 0 0 1 3 43)">
</image>
<path class="st0" d="z"/>
<image style="overflow:visible;" width="589" height="325" xlink:href="D4DC52AA0BDF4BFF.png"  transform="matrix(1 0 0 1 4 66)">
</image>
<path class="st0" d="z"/>
<image style="overflow:visible;" width="574" height="323" xlink:href="D4DC52AA0BDF4BFA.png"  transform="matrix(1 0 0 1 24 77)">
</image>
<path class="st0" d="z"/>
<image style="overflow:visible;" width="573" height="406" xlink:href="D4DC52AA0BDF4BFB.png"  transform="matrix(1 0 0 1 24 10)">
</image>
<path class="st0" d="z"/>
<path d="M410.1,95l3-1.7l31.6,50.4l-3,1.6L410.1,95z"/>
<path id="Shape_1_copy" d="M410.2,192l3,1.6l31.4-50.1l-3-1.6L410.2,192z"/>
<path id="Shape_1_copy_2" d="M427.1,102.8l2.6-1.4l26.9,42.7l-2.6,1.4L427.1,102.8z"/>
<path id="Shape_1_copy_3" d="M427.2,185l2.6,1.4l26.7-42.5l-2.6-1.4L427.2,185z"/>
<path id="Shape_1_copy_4" d="M441.8,110.4l2.1-1.2l22.4,35.2l-2.1,1.2L441.8,110.4z"/>
<path id="Shape_1_copy_5" d="M441.9,178.1l2.1,1.1l22.3-34.9l-2.1-1.1L441.9,178.1z"/>
<path id="Shape_1_copy_6" d="M169.7,192l-3,1.6l-31.6-50.4l3-1.6L169.7,192z"/>
<path id="Shape_1_copy_7" d="M169.6,95l-3-1.6l-31.4,50.1l3,1.6L169.6,95z"/>
<path id="Shape_1_copy_8" d="M152.8,184.2l-2.6,1.4l-26.9-42.7l2.6-1.4L152.8,184.2z"/>
<path id="Shape_1_copy_9" d="M152.7,102l-2.6-1.4L123.4,143l2.6,1.4L152.7,102z"/>
<path id="Shape_1_copy_10" d="M138.1,176.6l-2.1,1.2l-22.4-35.2l2.2-1.2L138.1,176.6z"/>
<path id="Shape_1_copy_11" d="M138,108.9l-2.1-1.1l-22.3,34.9l2.1,1.1L138,108.9z"/>
<text transform="matrix(1.066 0 0 1 243.1733 187.1699)" class="st1 st2">A</text>
<text transform="matrix(1.0663 0 0 1 24.124 280.563)" class="st1 st3">MACFARLANE</text>
<text transform="matrix(1.066 0 0 1 127.5605 327.791)" class="st4 st1 st5">graphic | web | motion design</text>
<image style="overflow:visible;" width="293" height="158" xlink:href="D4DC52AA0BDF4BF6.png"  transform="matrix(1 0 0 1 73 66.556)">
</image>
<path class="st0" d="z"/>
<path class="st4" d="M459.2,359v62.4L432,397.8v16.7l34,29.5l34-29.5v-16.7l-27.2,23.6V359H459.2z"/>
<text transform="matrix(1 0 0 1 473.134 433.645)" class="st6 st1 st7">scroll for more</text>
</svg>
