<svg xmlns="http://www.w3.org/2000/svg" viewBox="0 0 188.92 271.42"><defs><style>.cls-1{fill:#fac198;}.cls-2{fill:#5b4313;stroke:#38251b;}.cls-2,.cls-28{stroke-miterlimit:10;}.cls-3{fill:#171315;}.cls-11,.cls-4{fill:#2e2c2e;}.cls-5{fill:#424143;}.cls-6{fill:#474547;}.cls-7{fill:#70583f;}.cls-8{fill:#020202;}.cls-9{fill:#b3272d;}.cls-10{fill:#fddfcc;}.cls-11{opacity:0.16;}.cls-12{fill:#ffdfcb;}.cls-13{fill:#f1b791;}.cls-14{fill:#3a2116;}.cls-15{fill:#c886ae;opacity:0.47;}.cls-16,.cls-31,.cls-32{fill:#fff;}.cls-17{fill:#456626;}.cls-18{fill:#2e490a;}.cls-19{fill:#eae8e9;}.cls-20{fill:#bc8ea1;}.cls-20,.cls-32{opacity:0.5;}.cls-21{fill:#070707;}.cls-22{fill:#212121;}.cls-23{fill:#fcd4c0;}.cls-24{fill:#262526;}.cls-25{fill:#262626;}.cls-26{fill:#0c6d61;}.cls-27{fill:#171214;}.cls-28{fill:none;stroke:#fac198;stroke-width:0.5px;}.cls-29{fill:#9e0050;}.cls-30{fill:#f7afb6;}.cls-31{opacity:0.49;}.cls-33{fill:#ddd;}</style></defs><title>graduatinggirl</title><g id="Layer_1" data-name="Layer 1"><g id="underhand"><path class="cls-1" d="M296.78,262.82v2.55s3.6,5.36,8,5.73c0,0,6.47,1,9-3.51,0,0,1.85-5.63,1.75-8.41l.2-5.23c-.34,1-.74,2.15-1.22,3.3a43.68,43.68,0,0,1-2,4.08s-4,2.77-8.2,2.29Z" transform="translate(-195.37 -103.2)"/><path class="cls-2" d="M227.51,162.12s-26.15,37.59,4.57,97.17l61.73.19s22.41-50,3-94.3C296.78,165.18,256.42,107.28,227.51,162.12Z" transform="translate(-195.37 -103.2)"/></g><path class="cls-3" d="M199.71,150.16l56.32-44,65.64,22-43.09,25.45c-4-7.71-7.49-9.3-9.85-9.4-5-.22-7.89,6-13.65,5.15-3.32-.5-3.89-2.81-6.2-2.35-3.81.76-3.42,7.26-8,10-3.26,1.94-7.13.88-10.07.12C222.53,155,212.5,152.76,199.71,150.16Z" transform="translate(-195.37 -103.2)"/><polygon class="cls-4" points="4.34 46.97 2.01 46.03 60.66 0 128.75 23.48 126.3 24.96 60.66 2.96 4.34 46.97"/><path class="cls-5" d="M227.51,162.12s1.06-18.67,10.56-26.44a47.56,47.56,0,0,0-7.61,25.13A4.57,4.57,0,0,0,227.51,162.12Z" transform="translate(-195.37 -103.2)"/><path class="cls-3" d="M230.46,160.81s.66-10.81,2.33-14c0,0,3.3-9.6,5.28-11.16l2.61-2.46a30.92,30.92,0,0,0-3.88,8.47s-3.52,12.44-3.52,17.4Z" transform="translate(-195.37 -103.2)"/><path class="cls-4" d="M233.29,159.08s1.32-11.19,2.42-13.25c0,0,2.54-10.63,5-12.62,0,0,5.68-5.41,16.77-7s23.26,1.53,25.51,3.88c0,0,10.47,14.92,10.73,34,0,0-24.44-9.8-34.54-8.77C259.15,155.25,239.08,156,233.29,159.08Z" transform="translate(-195.37 -103.2)"/><path class="cls-6" d="M246.47,134.3s-3.14,0-2.8,1.94c0,0-.4.67,2.8.53,0,0-2.67.27-2.47,1.87a1.31,1.31,0,0,0,1.06.93,9.39,9.39,0,0,1-1.86,2s-.73,1.4,1.64.93c0,0,1.64-.54,1.64.1,0,0-3.87,1.71-3.67,3.51,0,0,.67.6,3.67-.27,0,0-3.34,1.47-3.34,3a12.42,12.42,0,0,0,2.54-.77,2.41,2.41,0,0,1-1,2.27s-1.5,2.07,1.24,2.2c0,0,1-.87,1.2-.53v.87a3.33,3.33,0,0,0,1.67-2.77,2.61,2.61,0,0,1,1.87-2.84,1.46,1.46,0,0,0-1.74-.32s-.53-.62.73-1.42c0,0,1.94-1.94,1.54-2,0,0-2.14.5-2.27,0,0,0,1.67-.5,1.47-.77a6.45,6.45,0,0,0-1.74-.67s2.78-1.14,2.59-1.47-3.13-.4-3.13-.4,3.14-1.87,2.74-1.87-2.94-.27-2.94-.27l3.34-2.8Z" transform="translate(-195.37 -103.2)"/><path class="cls-3" d="M282,129.34l2.66,1.09s6.34,6.95,7.35,12.09a77.28,77.28,0,0,1,4.77,22.66L293.69,164s-.85-17.49-5.62-24.47C288.08,139.55,284,130.27,282,129.34Z" transform="translate(-195.37 -103.2)"/><path class="cls-7" d="M250.71,162.12a2.66,2.66,0,0,0-2.38,1.9s-1.37-2.23-.62-2.48c0,0-1.42,1.62-.71,3,0,0-3.27,1.22-3.21-.51,0,0-2.07,3.12-1,3.37,0,0-2.64,1.49-3,1.24l-.32-.25A3.26,3.26,0,0,0,243,169.5a1.91,1.91,0,0,1,.75,1.74s1.57-2.12,1.31-3l-.26-.87a2.23,2.23,0,0,1,2.15.87v-1.87s1.14-.87,2-.37C249,166,249.36,161.45,250.71,162.12Z" transform="translate(-195.37 -103.2)"/><path class="cls-7" d="M290.6,171a2.66,2.66,0,0,0,.32,3s-2.61,0-2.42-.81c0,0,.6,2.07,2.13,2.21,0,0-.74,3.41-2.16,2.43,0,0,1.52,3.42,2.3,2.66,0,0-.17,3-.55,3.17l-.38.14a3.26,3.26,0,0,0,2.85-2.38,1.91,1.91,0,0,1,1.87.31s-.94-2.46-1.81-2.72l-.87-.25a2.23,2.23,0,0,1,1.89-1.34l-1.57-1s-.12-1.43.75-1.87C293,174.58,289.31,171.8,290.6,171Z" transform="translate(-195.37 -103.2)"/><path class="cls-8" d="M230.46,214.54s.72,22.15,9.32,25.38h0l-8.26,6.17S226.95,223.75,230.46,214.54Z" transform="translate(-195.37 -103.2)"/><path class="cls-8" d="M243.07,218s.72,22.15,9.32,25.38h0l-8.26,6.17S239.56,227.2,243.07,218Z" transform="translate(-195.37 -103.2)"/><path class="cls-8" d="M282.56,218s.72,22.15,9.32,25.38h0l-8.26,6.17S279.05,227.2,282.56,218Z" transform="translate(-195.37 -103.2)"/><path class="cls-8" d="M295.31,217.74s-.72,22.15-9.32,25.38h0l8.26,6.17S298.82,226.95,295.31,217.74Z" transform="translate(-195.37 -103.2)"/></g><g id="Layer_33" data-name="Layer 33"><polyline class="cls-9" points="58.09 144.85 70.35 145.21 62.12 156.09 58.09 144.85"/></g><g id="Layer_34" data-name="Layer 34"><path class="cls-10" d="M247.27,230.76c.67-.59,1.66-.34,3.27-1.27a9.26,9.26,0,0,0,3.82-5,12.91,12.91,0,0,0,15.06.53,5.85,5.85,0,0,0,.77,1.34,6.24,6.24,0,0,0,3,2.1l5.23,2.3-12.73,17.65L253.46,248C246.6,236.1,246,231.91,247.27,230.76Z" transform="translate(-195.37 -103.2)"/><path class="cls-10" d="M270.77,229.62" transform="translate(-195.37 -103.2)"/></g><g id="Layer_21" data-name="Layer 21"><path class="cls-4" d="M222.52,235.91a18.5,18.5,0,0,0-5.56,1.17,18.7,18.7,0,0,0-8.39,7.1s-2.94,6.46-7,30c0,0-7.43,35-6,37.65,0,0,1.29,18.93,8.92,26.56,0,0,5.14,5.95,11.59,5.47l-4.39,29.62H313.27s-3.72-16.49-3-29.63h0s9.93,3.74,17.7-11.39,7.56-22,7.56-22,2.87-11.87-4.24-32.29c0,0-5.18-17.67-10.94-31.84L317,239.74l-30.41-6.65-8.14-2.33-21,28.54-10.21-28.54-8.69,2.33A113.61,113.61,0,0,1,222.52,235.91Z" transform="translate(-195.37 -103.2)"/><path d="M227.89,292.76s-5.05,46.41-9.23,50.34h0s-11.15,0-11.28-19.34h0s.14-9.65,1.19-11.11h0s14.49-2,19.32-19.89" transform="translate(-195.37 -103.2)"/><ellipse class="cls-11" cx="316.42" cy="325.24" rx="74.38" ry="38.86" transform="translate(-312.68 88.72) rotate(-28.7)"/><path class="cls-12" d="M252.14,227.92c0-.45,1.46-1.1,1.76-2.58a4.08,4.08,0,0,0,.07-.77,3.77,3.77,0,0,0-.45-1.71q-1-.51-2-1.09a51.46,51.46,0,0,1-6-4s-8.43-4.85-10.11-9.33l-1.4-3.08s-8.82-1.1-9-7.6c0,0-1.62-8,2.38-9.86h1.19s1.84,6.93,5.52,9.86a25.91,25.91,0,0,1-1-5.82,26.75,26.75,0,0,1,2.28-12.32l10.25-4.73A54.43,54.43,0,0,0,259.35,164c2.82,1.84,5.84,3.69,9.06,5.52a169.45,169.45,0,0,0,15.83,7.91c1.43,7.67,1.77,10.25,1.77,11.05,0,.13,0,.89.08,1.93,0,.35.06.73.12,1.18.33,2.55.85,3-.2,4.94,0,0,5.25-6.78,4.62-11.35,0,0,5.36,4.89,1.89,12.77a11.52,11.52,0,0,1-7.25,5s.47,6-9.93,14.35q-1.28,1.08-2.69,2.18t-2.51,1.87l-1.24,1a24.18,24.18,0,0,0,1.1,2.69c1.06,2,2.27,2.26,2.21,2.83C271.95,230.15,252.24,229.56,252.14,227.92Z" transform="translate(-195.37 -103.2)"/><path class="cls-13" d="M258.91,201.92s-1.85-.84-2.68-.5c0,0-.67.76.5,2,0,0,1.85,2,5.7.67,0,0,1.78-1.5,1.1-2.76a1.33,1.33,0,0,0-.41-.13,1.7,1.7,0,0,0-1.32.5,2.78,2.78,0,0,1-1,.45A2.9,2.9,0,0,1,258.91,201.92Z" transform="translate(-195.37 -103.2)"/><path class="cls-14" d="M281.91,178.46c-15-1.41-19.23,1.2-19.23,1.2-1.6.73-8.73.6-8.73.6-2-1.58-21.77.45-21.77.45v1.88h1.23c-.83,4.76.48,10.71,1,12.44s6.09,2,6.09,2a75.56,75.56,0,0,0,9.06,0,9.05,9.05,0,0,0,5.31-2.13c2.28-3.36,2.65-8.85,2.65-8.85,1.56-2,3.7-.19,3.7-.19a30.59,30.59,0,0,0,2.8,6.73c1.89,3.27,4.55,2.93,4.55,2.93s8.15.33,12-1.75,4.51-4.41,4.51-4.41a15.86,15.86,0,0,0,.71-6,15.5,15.5,0,0,0-.43-2.6h.81v-2.06Zm-27.79,15.29s-1.49,2-5.47,2.18c0,0-9.82.24-11.9-1.07a8.2,8.2,0,0,1-1.72-4.32c-.24-2.64-.54-6.61-.54-6.61v-1.33s14-3.45,20.83.3C255.31,182.89,257,190.8,254.12,193.75Zm28.74-3.14a16.81,16.81,0,0,1-6.19,3.5s-8.15.91-9.58-.36-3.66-3.67-3.91-5.09a7.27,7.27,0,0,1-.55-5,3.12,3.12,0,0,1,2.68-2.5s12.08-2,17.38,0l1.73.79S286.2,187.8,282.86,190.61Z" transform="translate(-195.37 -103.2)"/><path class="cls-15" d="M266.79,190.61s.94-9,6-10c0,0,5-1.55,7.71,2.18,0,0-3.51-3.5-8.87-.22C271.65,182.54,267.74,186,266.79,190.61Z" transform="translate(-195.37 -103.2)"/><path class="cls-8" d="M252.44,192s-1.61-5.95-4.86-8.07c0,0-4.06-2.64-7.69-.61a4.93,4.93,0,0,0-2.12,2.12s-.9,1.13-4.11-.38a5.26,5.26,0,0,0,3.54,2.45v.8s-2.6.66-3.54-.19c0,0,1.89,2.27,4.39,1.7a16.69,16.69,0,0,0,2.12,2.69s-1.56-2.88-.94-4.15c0,0,.19-2.6,4.34-2.79C243.56,185.63,249.27,184.63,252.44,192Z" transform="translate(-195.37 -103.2)"/><path class="cls-15" d="M252.44,192s-.94-9-6-10c0,0-5-1.55-7.71,2.18,0,0,3.51-3.5,8.87-.22C247.57,184,251.48,187.44,252.44,192Z" transform="translate(-195.37 -103.2)"/><path class="cls-16" d="M252.44,192.09s.71,2.93-2.79,2.41c0,0-4.91.52-7.84-.94a5.24,5.24,0,0,1-3.12-3.92l.38-3.63,4.53-1.23,5.57,1.65,2.17,2.88Z" transform="translate(-195.37 -103.2)"/><path class="cls-16" d="M266.82,190.81s-.71,2.93,2.79,2.41c0,0,4.91.52,7.84-.94a5.24,5.24,0,0,0,3.12-3.92l-.38-3.63-4.53-1.23-5.57,1.65L267.91,188Z" transform="translate(-195.37 -103.2)"/><path class="cls-8" d="M266.79,190.61s1.61-5.95,4.86-8.07c0,0,4.06-2.64,7.69-.61a4.93,4.93,0,0,1,2.12,2.12s.9,1.13,4.11-.38a5.26,5.26,0,0,1-3.54,2.45v.8s2.6.66,3.54-.19c0,0-1.89,2.27-4.39,1.7a16.69,16.69,0,0,1-2.12,2.69s1.56-2.88.94-4.15c0,0-.19-2.6-4.34-2.79C275.67,184.19,270,183.2,266.79,190.61Z" transform="translate(-195.37 -103.2)"/><path class="cls-17" d="M250.91,189.11s-.52,3.78-3.45,4.34-6.14-.66-6.89-2.93a7.9,7.9,0,0,1,.24-4.77s.57-1.7,4.79-1,4.23,2.33,4.23,2.33A3.26,3.26,0,0,1,250.91,189.11Z" transform="translate(-195.37 -103.2)"/><path class="cls-18" d="M250.85,189.22a17.87,17.87,0,0,1-1.45,2.15,7,7,0,0,1-3.66,2s-3,.11-4.22-2a6.2,6.2,0,0,1-.7-1.69,6.58,6.58,0,0,1,.3-3.94l-.29.07a6.17,6.17,0,0,0-.53,3.36c.08.58.07,2.41,1.56,3.3a8.38,8.38,0,0,0,3.28,1.26,5,5,0,0,0,3.53-.56,4.18,4.18,0,0,0,.91-.85A4.61,4.61,0,0,0,250.85,189.22Z" transform="translate(-195.37 -103.2)"/><path class="cls-17" d="M268.51,188.42s.52,3.78,3.45,4.34,6.14-.66,6.89-2.93a7.9,7.9,0,0,0-.24-4.77s-.57-1.7-4.79-1-4.23,2.33-4.23,2.33A3.26,3.26,0,0,0,268.51,188.42Z" transform="translate(-195.37 -103.2)"/><path class="cls-18" d="M268.57,188.53a17.87,17.87,0,0,0,1.45,2.15,7,7,0,0,0,3.66,2s3,.11,4.22-2a6.2,6.2,0,0,0,.7-1.69,6.58,6.58,0,0,0-.3-3.94l.29.07a6.17,6.17,0,0,1,.53,3.36c-.08.58-.07,2.41-1.56,3.3a8.38,8.38,0,0,1-3.28,1.26,5,5,0,0,1-3.53-.56,4.18,4.18,0,0,1-.91-.85A4.61,4.61,0,0,1,268.57,188.53Z" transform="translate(-195.37 -103.2)"/><path d="M270.9,185.37a3.17,3.17,0,0,0,.47,4.34c2.24,2.12,4.73-.53,4.73-.53s2.2-3.87-2.09-5.26C274,183.93,271.09,183.86,270.9,185.37Z" transform="translate(-195.37 -103.2)"/><path d="M248.32,186.8a3.17,3.17,0,0,1-.47,4.34c-2.24,2.12-4.73-.53-4.73-.53s-2.2-3.87,2.09-5.26C245.2,185.36,248.14,185.29,248.32,186.8Z" transform="translate(-195.37 -103.2)"/><polygon class="cls-19" points="81.82 80.81 79.67 83.24 78.64 80.16 81.82 80.81"/><polygon class="cls-19" points="49.08 82.1 47.69 85.03 45.84 82.36 49.08 82.1"/><ellipse class="cls-20" cx="48.42" cy="99.74" rx="6.94" ry="2.87"/><ellipse class="cls-20" cx="80.82" cy="99.74" rx="6.94" ry="2.87"/></g><g id="Layer_26" data-name="Layer 26"><path class="cls-5" d="M221.9,261q-2.45-1.19-13,14.36s-9.51,9.39-10,12.15h0s-4.58,19.86-2.88,28.37h0s2.25,23.41,15.14,27.16l7.48,1.1a15.39,15.39,0,0,1-3.4-2c-7.39-5.64-7.59-16.72-7.64-22.12A50.26,50.26,0,0,1,209,307.66Q225.82,262.87,221.9,261Z" transform="translate(-195.37 -103.2)"/><path class="cls-5" d="M327.16,283s6.72,5.74,7.69,8.34,6,30.15-11.69,48.34" transform="translate(-195.37 -103.2)"/></g><g id="Layer_30" data-name="Layer 30"><path class="cls-21" d="M215.24,269.07s-9.51,3.53-11.24,11.1l11.24-11.1" transform="translate(-195.37 -103.2)"/></g><g id="Layer_31" data-name="Layer 31"><path class="cls-22" d="M219.27,268.18s-12.85,16.39-13.26,29.2c0,0-3.38-7.28,3.75-20.2,0,0-5.19,4.73-6.58,8.54a13.77,13.77,0,0,1,2-6.75s8.57-9.87,14.07-10.79" transform="translate(-195.37 -103.2)"/></g><g id="Layer_32" data-name="Layer 32"><path class="cls-3" d="M216.1,343.71a3.93,3.93,0,0,0,2.5.39c2.21-.44,4-3.18,4.08-6.82l-7.41,36.16h-4.15Z" transform="translate(-195.37 -103.2)"/></g><g id="Layer_35" data-name="Layer 35"><path class="cls-23" d="M266.83,226c-3.41,3.48-2.86,8.5-2.74,9.42l11.36-.57,3-4.09-5.23-2.3a13.45,13.45,0,0,1-1.19-1,9.16,9.16,0,0,1-2-2.43,7.61,7.61,0,0,1-.45-1A9.46,9.46,0,0,0,266.83,226Z" transform="translate(-195.37 -103.2)"/></g><g id="Layer_36" data-name="Layer 36"><path class="cls-23" d="M254,224.57l3.56,1.91h0l1.62,8.44s-2.34-1.1-3.86-.76h-6.8l-1.22-3.4a8.55,8.55,0,0,0,3-1.19A9.13,9.13,0,0,0,254,224.57Z" transform="translate(-195.37 -103.2)"/></g><g id="Layer_29" data-name="Layer 29"><path class="cls-21" d="M216.54,248s-3.25,0-7.65,7.61c0,0,7.32-2.12,8.74-1.78h0a13.68,13.68,0,0,1-1.09-5.82" transform="translate(-195.37 -103.2)"/><path class="cls-21" d="M219.56,257.57s-7-.35-9.8,1.72c0,0,9.06.06,12.13,1.68h0a23.58,23.58,0,0,1-2.34-3.4" transform="translate(-195.37 -103.2)"/><path class="cls-21" d="M206,269.07a32.89,32.89,0,0,0,15-8.14l.89,0-6.66,8.1S213.44,267.41,206,269.07Z" transform="translate(-195.37 -103.2)"/></g><g id="Layer_25" data-name="Layer 25"><path d="M278.35,287.48s27.75,82.69,34.79,86H293Z" transform="translate(-195.37 -103.2)"/><path d="M267,308.81s19.26,63.22,23.19,64.64H270.9Z" transform="translate(-195.37 -103.2)"/><polygon points="46.54 270.25 55.65 270.25 62.9 184.28 46.54 270.25"/><path d="M223.62,373.44s22.63-78.27,22-82.12c0,0-15.64,55-27,82.12Z" transform="translate(-195.37 -103.2)"/></g><g id="Layer_24" data-name="Layer 24"><path class="cls-24" d="M332.13,286.84s2.7,4.11,2.73,4.47a45,45,0,0,1-2.73-4.09v-.38" transform="translate(-195.37 -103.2)"/></g><g id="Layer_23" data-name="Layer 23"><path d="M326.7,279.17s5.34,5.15,5.53,8.3c0,0-4.69-5.39-5.07-4.51h0l-.47-3.8" transform="translate(-195.37 -103.2)"/><path d="M327.43,285.35s1.56.69,2.41,4.22c0,0-2.06-3.05-2.41-2.1h0v-2.12" transform="translate(-195.37 -103.2)"/><path d="M325.93,273.64s1,.08,1,.45l-1.21-1.67.19,1.22" transform="translate(-195.37 -103.2)"/></g><g id="Layer_22" data-name="Layer 22"><path class="cls-25" d="M296.78,265.37a22.33,22.33,0,0,0-3.12,7c-1,4-.53,7.14-.15,10.49.59,5.14.65,10.34,1.06,15.5,1,12.54-.32,13.39.71,20.69a93,93,0,0,0,5.66,21.28,13,13,0,0,0,8.67,5.68c3.11.47,7-.32,11.57-3.88,0,0,8.22-8,8.65-26.4.15-6.52.72-16.57-2.41-30.4-.78-3.43-6-26.37-11.9-26.17-2.39.08-4.3,3.88-4.51,4.29-2.43,4.83.28,9.24-1.2,10.34C308.72,274.64,305.52,273.43,296.78,265.37Z" transform="translate(-195.37 -103.2)"/><polyline class="cls-16" points="43.22 129.89 54.72 165.87 70.35 165.87 91.22 129.89 83.08 127.56 62.12 156.09 51.91 127.56 43.22 129.89"/></g><g id="Layer_20" data-name="Layer 20"><path class="cls-26" d="M234.58,214.29a16.32,16.32,0,0,0,.7-3.69l3.31.35-.1,4.08-3.91-.74" transform="translate(-195.37 -103.2)"/></g><g id="Layer_19" data-name="Layer 19"><path class="cls-26" d="M220.84,218.91s-.88-.43-2.9-3.39l-2.86,1.41a7.38,7.38,0,0,1,1.46,3.52" transform="translate(-195.37 -103.2)"/></g><g id="Layer_8" data-name="Layer 8"><path class="cls-10" d="M238.49,215s-2.06-5.49-4.23,0c0,0-1.83,15.11-4.41,17.22a1.71,1.71,0,0,1-2.69-.51l-5.38-11.67s-1.6-3-4.23-1.6c0,0-2.12,1.26-.29,5.15s5.26,12.3,5.26,12.3l.23.57s-4.23,2.46-4.18,5.55a6.48,6.48,0,0,0-2.06,4.75s-.8,5.15,3.55,11.56L221.9,261,214,285.33s-5.25,19.9-5.43,27.32c0,0,11-2.17,16.28-12.12,0,0,7.24-17.19,10.49-32.39l2.51-10.94,1.93-2.28s.3-1.47-.9-9.69l-1.76-11.32Z" transform="translate(-195.37 -103.2)"/></g><g id="Layer_27" data-name="Layer 27"><path class="cls-27" d="M233.43,287.48s2.9,3.18,2.31,4.37a175,175,0,0,0-5.94,20S233.89,289.43,233.43,287.48Z" transform="translate(-195.37 -103.2)"/></g><g id="Layer_18" data-name="Layer 18"><path class="cls-1" d="M216.54,248.41a15,15,0,0,0,1.56,6.44h0s2.45,4.93,3.79,6.12,5.78,1.85,8.81-.29c0,0-2.44,2-6.39.12a9,9,0,0,1-4.63-5.15l-3.14-7.24" transform="translate(-195.37 -103.2)"/></g><g id="Layer_17" data-name="Layer 17"><path class="cls-1" d="M227.85,256.61l1.57-.76s.75,3.5,6.9,2.55a6.23,6.23,0,0,1-8.46-1.79Z" transform="translate(-195.37 -103.2)"/></g><g id="Layer_16" data-name="Layer 16"><path class="cls-26" d="M226.58,255.85s.35-2,1.79-1.52h0a5.56,5.56,0,0,0,1.35,1.77l-.48.93s-2.11-1.48-2.65-1.18" transform="translate(-195.37 -103.2)"/></g><g id="Layer_13" data-name="Layer 13"><path class="cls-1" d="M217.94,242.94a7,7,0,0,0-.64,5.12l-.76-1.76S217.06,243.15,217.94,242.94Z" transform="translate(-195.37 -103.2)"/></g><g id="Layer_14" data-name="Layer 14"><path class="cls-1" d="M216.54,246.3s2.83,8.45,10,9.55a11.47,11.47,0,0,1-2.18-.49c-4.6-1.53-7-5.59-7.85-7.32Z" transform="translate(-195.37 -103.2)"/></g><g id="Layer_15" data-name="Layer 15"><path class="cls-1" d="M222.91,236.48s-3.43,1.87-3.88,3.71a4.84,4.84,0,0,0-.34,2c.14.81,1.81,5.34,2.67,5.93s7,6.19,7,6.19V250.8s-5.49-1.67-6.08-3.63c0,0-.68-.87-1.49-1.93s-1.69-3.32-.47-5.18l3.24-2.8-.65-.78" transform="translate(-195.37 -103.2)"/></g><g id="Layer_12" data-name="Layer 12"><path class="cls-1" d="M230.28,245s2.34.78,3.85-.48a10.81,10.81,0,0,0,1.79-1.17,7,7,0,0,1-2.52,2.52l-1.44.46L230.28,245" transform="translate(-195.37 -103.2)"/><path class="cls-1" d="M229.39,244.18a8.08,8.08,0,0,0,.89-4.63s-.65,3.71-1.53,4.19Z" transform="translate(-195.37 -103.2)"/><path class="cls-1" d="M225.7,242.48s-1.19-5.34-2.79-6a5.69,5.69,0,0,1,1.4,2.31,21.73,21.73,0,0,1,.71,3.69h.69Z" transform="translate(-195.37 -103.2)"/></g><g id="Layer_11" data-name="Layer 11"><path class="cls-28" d="M234.7,247a6.45,6.45,0,0,1-4.19-1.7h0s-2.81-2.5-4.28-2.49h0a4.21,4.21,0,0,0-2-.27h0s3.49,1.52,2,3.93h0a1.52,1.52,0,0,1-.61.72s-.55.3-2.86-.45h0a3.89,3.89,0,0,0,1,1.68,3.83,3.83,0,0,0,1.12.76l4.22,1.59h0s2.61,1.23,3.28,2.28a3,3,0,0,0,1.74,1.29h0" transform="translate(-195.37 -103.2)"/></g><g id="Layer_9" data-name="Layer 9"><polygon class="cls-26" points="28.89 139.35 25.58 137.76 23.9 140.93 27.45 143.54 30.99 145.21 32.48 142.98 32.29 141.07 28.89 139.35"/></g><g id="Layer_10" data-name="Layer 10"><path class="cls-10" d="M234.18,254.33c-.84,0-2.14-1.86-2.7-2.19l-3-1.77a11.06,11.06,0,0,1-3.68-1.49,4.15,4.15,0,0,1-2-2.14c2.05,1.07,2.52.7,2.52.7a2.57,2.57,0,0,0,1.21-2.69c0-1.1-2.28-2.21-2.28-2.21.42-.28,2.94.56,2.94.56a35.21,35.21,0,0,1,4.33,3c3.12,1.72,5.08.51,5.08.51Z" transform="translate(-195.37 -103.2)"/></g><g id="Layer_40" data-name="Layer 40"><path class="cls-26" d="M303.53,217.43c-.21-.68.34-1.36,1.42-2.83.84-1.15,2-2.86,3.47-5.05l4,1c-.6,1.35-1.27,2.76-2,4.21s-1.56,2.89-2.34,4.19C307.43,219,304,218.88,303.53,217.43Z" transform="translate(-195.37 -103.2)"/></g><g id="Layer_38" data-name="Layer 38"><path class="cls-29" d="M253.43,211.91s-1.88-.5-2.34-1.57c0,0-.58,0-.31.5,0,0,2,3.18,3.64,4l1-.38A3.69,3.69,0,0,1,253.43,211.91Z" transform="translate(-195.37 -103.2)"/><path class="cls-29" d="M268,211.76s2.88-.88,3.45-1.65c0,0,.35,0-.23.61,0,0-2.26,2.91-3.68,3.68a1.48,1.48,0,0,0-1.19-.42S268.49,212.94,268,211.76Z" transform="translate(-195.37 -103.2)"/><path class="cls-30" d="M251.7,211.07s10.29-.62,18.83-.31a7.59,7.59,0,0,1-2.53,1,22.35,22.35,0,0,1-6.81.69S254.49,213,251.7,211.07Z" transform="translate(-195.37 -103.2)"/><path class="cls-30" d="M251.53,211.94s1.6,4.46,4.55,5.84c0,0,3.76,2.84,9.16.38,0,0,4.12-2.49,5-5.14l1-2.3s-3,3.72-4.45,4.14a12.16,12.16,0,0,1-8.4,1.57A10.08,10.08,0,0,1,251.53,211.94Z" transform="translate(-195.37 -103.2)"/><ellipse class="cls-31" cx="68.72" cy="114.16" rx="1.04" ry="0.38"/><path class="cls-16" d="M253.43,211.91s.57,2,2,2.57l-1,.38s5.54,4.46,13.11-.46a1.47,1.47,0,0,0-1.19-.42s1.9-.68,1.65-2.22A35.71,35.71,0,0,1,253.43,211.91Z" transform="translate(-195.37 -103.2)"/></g><g id="Layer_39" data-name="Layer 39"><ellipse class="cls-32" cx="69.94" cy="113.73" rx="1.04" ry="0.42"/><path class="cls-33" d="M258.52,214.66s4.9.16,5.57-.43C264.09,214.23,262.73,215.25,258.52,214.66Z" transform="translate(-195.37 -103.2)"/></g><g id="thumb"><path class="cls-10" d="M310.09,218.23s1.6-4.4-1.5-5.69c0,0-3.6-.4-5.59,4.2,0,0-1.5,1.2-.9,4.1,0,0,.3,5.3-1.1,7.49l-1.9,3.9s6.49-1.9,10.39,0c0,0-1.5-5.2-1-7.79Z" transform="translate(-195.37 -103.2)"/></g><g id="hand"><path class="cls-10" d="M312.59,233.16s-8.29-5.1-20.18,1.6a5.86,5.86,0,0,0-1.8,5.3s-.3,2.6,5.1,1.8c0,0-6,1.6-6.09,4.1,0,0-.8,2.94,3.5,3.87,0,0-2.7.43-1.7,3.43,0,0-.1,2.6,3.1,2.9,0,0-2.5,1.3-.1,4.4,0,0,1.7,2.8,6.19,2.6,0,0,8.69,2.2,12.39-1.8,0,0,2.2-3.5,2.5-6.09,0,0,1.7-3.76.5-5.42l-1-6.26s1.1-4,.2-5.59c0,0-1-1.6-1.8-3.2Z" transform="translate(-195.37 -103.2)"/></g><g id="hand_lines" data-name="hand lines"><path class="cls-28" d="M309.49,231.76a24.19,24.19,0,0,0-8.82-.15,25,25,0,0,0-4.68,1.33,10.17,10.17,0,0,0-3.59,1.82,7.59,7.59,0,0,0-2.2,3.6,3.68,3.68,0,0,0,.77,2.7c.83.93,2.49,1.56,5.83.8l10.59-2.7s-16.88,3.3-17.68,6.29c0,0-1,3.74,3.5,4.37,0,0,8.73,0,11-1l1.43-.42-4.26,1.27-6.61.37s-2.9-.52-3.46,1.41,1.45,3.83,1.45,3.83a6.87,6.87,0,0,0,3.46,1.26h6.13c.26,0,5.61-.48,6.84-1.34l-4.8,1.34-3.46.37h-2.79s-3.42-.86-3.79-.3-.63.48-.74,1.34a4,4,0,0,0,.2,1.48,4.1,4.1,0,0,0,1.49,2,5.07,5.07,0,0,0,1.92,1.35c1,.4,1.46.13,3.38.31,1.6.15,1.76.38,3.41.53a19.16,19.16,0,0,0,2.72.05" transform="translate(-195.37 -103.2)"/></g><g id="robe"><path class="cls-4" d="M315.53,259.18q1.07,1.61,2.13,3.31,1.8,2.88,3.37,5.66a98.7,98.7,0,0,1,6.18,45.36s-.86,19.55-7.27,25.77c0,0-10,10.21-17.73,0a77.94,77.94,0,0,1-5.1-25.08l-2.63-33.29a20,20,0,0,1,2.28-13.19,18.4,18.4,0,0,1,3.84-4.59l1.61,3.39s8.34,1.33,11.87-2.85h0q-2.18,10.32-2.52,10.26t1.31-11.43" transform="translate(-195.37 -103.2)"/></g><g id="Layer_7" data-name="Layer 7"><path d="M322.62,279.35c-.68-3-.72-7.49-3.54-12.13a23.69,23.69,0,0,0-4.45-5.33h0l.16-1.28c-.39,1.84-1.16,4.09-2.79,4.59s-2.81-1.17-5.28-1.5a10,10,0,0,0-6.84,2l-3.1-.34a129.25,129.25,0,0,0-.8,18,134.2,134.2,0,0,0,12.82,53.42s7.86,3.57,11.9-7.26a94.32,94.32,0,0,0,3.46-15.19A96.23,96.23,0,0,0,322.62,279.35Zm-23.56-5.53Zm3.1.91-.73-.21Zm-.85-.25-.6-.18Zm-1-.28h0Zm-.4-.12-.18-.05Zm-.26-.07-.21-.06Zm-.41-.12-.2-.06Z" transform="translate(-195.37 -103.2)"/></g></svg>