<?xml version="1.0" encoding="utf-8"?>
<!-- Generator: Adobe Illustrator 21.1.0, SVG Export Plug-In . SVG Version: 6.00 Build 0)  -->
<svg version="1.1" xmlns="http://www.w3.org/2000/svg" xmlns:xlink="http://www.w3.org/1999/xlink" x="0px" y="0px"
	 viewBox="0 0 250 250" style="enable-background:new 0 0 250 250;" xml:space="preserve">
<style type="text/css">
	.st0{fill:#EFD5B1;}
	.st1{display:none;fill:none;stroke:#1F211C;stroke-width:3;stroke-miterlimit:10;}
	.st2{fill:#1F211C;}
	.st3{fill:#EDCCA4;}
	.st4{fill:#B89778;stroke:#B89778;stroke-miterlimit:10;}
	.st5{fill:#CCB6DD;}
	.st6{fill:#EDB2C5;}
</style>
<g id="Layer_5">
	<path class="st0" d="M70.3,35.6L211,32.9c2.1,18.9,3.5,39.3,4,61.1c0.3,13.9,0.1,27.1-0.4,39.8c-0.6,2.9-1.6,6.4-3.5,10.1
		c-4.6,9-11.6,14-15.3,16.3c-3.4,2.7-7.6,5.7-12.8,8.4c-7.7,4-14.8,6.1-20.2,7.3l-1,11.3l2.3,1.2c0,0,0.5,16.4-9.1,21.3
		c0,0-9.6,7.8-27.5,2.9c0,0-11.4-5.2-13.8-11.7c-0.2-0.5-0.5-1-0.9-1.5c-1.1-1.5-2.5-2.4-3.4-2.9c1-6.6,2-13.2,3-19.8
		c-3.1,0-7-0.2-11.4-1.4c-7.8-2-13.3-5.8-16.5-8.4c-2.3-1.6-4.7-3.5-7.2-5.9c-8.6-8.6-12-18.6-13.5-24.5l5.4-60.2L70.3,35.6z"/>
	<path class="st1" d="M136.4,110.2c0,0,0.1,10.9,1.9,11.9s7.4,2.5,6.8,7.8c-0.5,5.3-7.1,8.1-8.7,6.6c-1.7-1.5-3.4,1.3-3.4,1.3"/>
	<path class="st2" d="M104.2,111.9L104.2,111.9c-4.4,0-8.1-3.6-8.1-8.1v-5.1c0-4.4,3.6-8.1,8.1-8.1h0c4.4,0,8.1,3.6,8.1,8.1v5.1
		C112.3,108.2,108.7,111.9,104.2,111.9z"/>
	<path class="st2" d="M172.5,111.9L172.5,111.9c-4.4,0-8.1-3.6-8.1-8.1v-5.1c0-4.4,3.6-8.1,8.1-8.1h0c4.4,0,8.1,3.6,8.1,8.1v5.1
		C180.5,108.2,176.9,111.9,172.5,111.9z"/>
	<path class="st3" d="M149.4,131.8h-19.9c-1.6,0-2.9-1.3-2.9-2.9l0,0c0-1.6,1.3-2.9,2.9-2.9h19.9c1.6,0,2.9,1.3,2.9,2.9l0,0
		C152.3,130.5,151,131.8,149.4,131.8z"/>
</g>
<g id="Layer_3">
	<path class="st4" d="M64.2,137.8c0,0,14.5,31.2,47.4,38.8v10.5H60.7L64.2,137.8z"/>
</g>
<g id="Layer_2">
	<path class="st4" d="M106.3,8.4c0,0,60.1-24.7,109.8,17.7c0,0,25.4,17.3,24.7,62s0,42.4,0,42.4s3.5,28.9-20.8,56.3h-57.4l0.7-10.2
		c0,0,47-19.1,49.2-41.5c0,0,3.8-19.7,2.2-52.4c0,0-63.3,9.3-72.1-44.2c-2,4.3-12.6,26.7-38.4,35.7c-17.2,6-32.2,3-38.3,1.4
		c0.8-4.8,1.5-9.6,2.3-14.3c8-9.5,16.1-19,24.1-28.5c2-4.5,0.6-9-2.1-10.4c-2.1-1.1-4.5-0.3-5.2,0c-1.4-0.1-3.5-0.1-5.6,0.9
		c-2.3,1.1-3.4,2.9-4.6,4.4c-1.6,2.3-4.1,5.3-7.9,8.7c-0.5-7-1.1-13.9-1.6-20.9c3-2.2,7-4.8,12.2-6.6C90.1,4.5,101.5,7,106.3,8.4z"
		/>
</g>
<g id="Layer_4">
	<path class="st0" d="M1,11.7c0,0,2.7-9.2,12.8-10.5c10.1-1.3,41.6,0,41.6,0s13.7,2.7,13.2,12.6l0,18.3c0,0,6.5-13,19.8-11.4
		c0,0,4.3,0.1,5,5.7c0,0,1.1,3.4-1.1,7.6L69.3,63c0,1.8,0,3.5,0,5.3C46.2,69,23.1,69.8,0,70.5L1,11.7z"/>
</g>
<g id="Layer_7">
	<path class="st5" d="M0,67.5l69.2,0c-1.2,37.2-2.4,74.5-3.6,111.7c15.4,1.7,30.8,3.5,46.2,5.2c0,0,30,21.5,26.4,39.4
		c0,0,4.7-33.8,25.9-38.6s0,0,0,0l59.7-0.4c0,0,23.3,5.8,26,24.6l0.2,37.4l-192-1.1c0,0-44.8,0-57.8-58.7L0,67.5z"/>
</g>
<g id="Layer_6_copy">
	<path class="st6" d="M139.5,157.2c0,0,3.7-5.4,9.8-5c0,0,10.5,1.1,12.2,2.5c0,0,2.6,1.2,3.9,1.2c0,0-2.6,5-6.5,6.8
		c0,0-3.9,2.8-13.7,3.3L139.5,157.2z"/>
	<path class="st6" d="M142.1,157.2c0,0-3.7-5.4-9.8-5c0,0-10.5,1.1-12.2,2.5c0,0-2.6,1.2-3.9,1.2c0,0,2.6,5,6.5,6.8
		c0,0,3.9,2.8,13.7,3.3L142.1,157.2z"/>
	<polygon class="st6" points="136.4,165.9 145.2,165.9 139.5,157.2 	"/>
</g>
</svg>
