<svg id="Layer_1" data-name="Layer 1" xmlns="http://www.w3.org/2000/svg" viewBox="0 0 206.34 187.57"><defs><style>.cls-1{fill:#fff;}.cls-2{fill:#493128;}.cls-3{fill:#281a16;}.cls-4{fill:#5e3825;}.cls-5{fill:#6b4738;}.cls-6{fill:#fedecb;}.cls-7{fill:#aa7b90;}.cls-8{fill:#e3b594;}.cls-9{fill:#bc8ea1;}.cls-10{fill:#3a2116;}.cls-11,.cls-23{fill:#7f7f7f;}.cls-11,.cls-20,.cls-21{stroke:#545454;}.cls-11,.cls-12,.cls-13,.cls-19,.cls-20,.cls-21,.cls-23{stroke-miterlimit:10;}.cls-11{stroke-width:0.4px;}.cls-12{fill:#ff7387;stroke:#e0687e;stroke-width:0.15px;}.cls-13,.cls-19,.cls-20{fill:none;}.cls-13{stroke:#000;}.cls-13,.cls-19,.cls-20,.cls-21{stroke-width:0.25px;}.cls-14{fill:#f1b791;}.cls-15{fill:#c886ae;opacity:0.47;}.cls-16{fill:#020202;}.cls-17{fill:#456626;}.cls-18{fill:#2e490a;}.cls-19{stroke:#997189;}.cls-21{fill:#5e5e5e;}.cls-22{fill:#a64951;}.cls-23{stroke:#565655;stroke-width:0.35px;}</style></defs><title>laptopGirl</title><polygon class="cls-1" points="99.11 32.81 97.34 33.83 97.34 31.79 99.11 32.81"/><polygon class="cls-1" points="70.84 33.93 72.6 34.95 72.6 32.91 70.84 33.93"/><ellipse class="cls-2" cx="103.17" cy="163.68" rx="103.17" ry="23.89"/><path class="cls-3" d="M173.11,234.06c12.36,1.88,30.57-12.15,30.57-12.15Z" transform="translate(-47.06 -58.23)"/><path class="cls-3" d="M188.4,235.31C200.75,237.2,219,223.17,219,223.17Z" transform="translate(-47.06 -58.23)"/><path class="cls-3" d="M202,235.31c12.36,1.88,30.57-12.15,30.57-12.15Z" transform="translate(-47.06 -58.23)"/><path class="cls-4" d="M111.45,130.35l-7.82-41s.12-20.52,13.71-27.84,27.37,0,27.37,0,9.33,5,11.61,15.62c0,0,4.72,4,5,55.92" transform="translate(-47.06 -58.23)"/><path class="cls-5" d="M125.71,72.28s2.38,9.61,17.31,9.55C143,81.83,131,80.3,125.71,72.28Z" transform="translate(-47.06 -58.23)"/><path class="cls-5" d="M134.34,72.28s2.38,9.61,17.31,9.55C151.66,81.83,139.66,80.3,134.34,72.28Z" transform="translate(-47.06 -58.23)"/><path class="cls-5" d="M114.87,106.41S108.46,114,117.23,126C117.23,126,111.47,115.41,114.87,106.41Z" transform="translate(-47.06 -58.23)"/><path class="cls-5" d="M121,108.92s-6.41,7.54,2.36,19.63C123.34,128.55,117.58,117.92,121,108.92Z" transform="translate(-47.06 -58.23)"/><path class="cls-5" d="M149.24,110.82s7,7-.84,19.75C148.4,130.57,153.33,119.53,149.24,110.82Z" transform="translate(-47.06 -58.23)"/><path class="cls-5" d="M154.73,108.85s7,7-.84,19.75C153.9,128.61,158.82,117.57,154.73,108.85Z" transform="translate(-47.06 -58.23)"/><path class="cls-6" d="M130.59,116.39v6.29a4.63,4.63,0,0,1-3.91,3.06,50.13,50.13,0,0,1-6.63,1.53A40.77,40.77,0,0,0,123.9,156a18.45,18.45,0,0,0,3.88-.29A19.15,19.15,0,0,0,136,152c1.21-.94,3-2.41,5.23-4.32,2-1.74,1.89-1.76,3.06-2.72,3.57-2.94,4.86-3,6.71-5a13.63,13.63,0,0,0,2.88-4.84,25.36,25.36,0,0,1-1.28-2.51,12.2,12.2,0,0,1-1.28-4.3,9.2,9.2,0,0,1-5.1-7.83c-.34-5.78-.51-11.23-.51-11.23S139.78,117.07,130.59,116.39Z" transform="translate(-47.06 -58.23)"/><polygon class="cls-1" points="98.87 33.63 96.6 33.3 98.02 31.5 98.87 33.63"/><polygon class="cls-1" points="71.07 34.75 73.35 34.42 71.92 32.62 71.07 34.75"/><path class="cls-7" d="M157.55,154.51l3.27,6.92-1.59,4.05Z" transform="translate(-47.06 -58.23)"/><path class="cls-8" d="M130.59,116.22s10.43,9,15.14-7.14C145.73,109.07,139.8,117.11,130.59,116.22Z" transform="translate(-47.06 -58.23)"/><path class="cls-9" d="M151.34,128.3c1.65-1.83,10.66,4,11.07,4.24a45.91,45.91,0,0,1,11.69,11s2.63,7.76.69,15.52c0,0,5.54,28.4,4.43,35.19,0,0-6.13-9.42-13.87,1.8,0,0-1.33,1-.78-1.38L161.83,161l-1,.44s-4.89,12.86-7.69,17.68,1.33,9.92,1.33,9.92,5.8,8.25,5.73,9.29-35,1.63-35,1.63.12-16.33-.69-17.06-10.71-4.08-10.71-4.08l-.17-9.79q-.48-.33-1-.7c-.65-.49-1.24-1-1.76-1.47,0,0-2.57,7.83-2.46,10.17,0,0-12-3.66-12.8-3.43,0,0,10.44-31.77,9.91-33.11s4.1-16.95,14.52-13.21h0s-2.41,24.74,5.27,28.58h0s2.74,2.26,17.08-9.42h0l11.5-11.33h0C150.81,130.39,150.83,128.86,151.34,128.3Z" transform="translate(-47.06 -58.23)"/><path class="cls-7" d="M107.08,155c.73-.14,1.18,2.7,2.86,4.54,3.18,3.49,8.38,4.07,12.85,3.85,0,0,14,10.6,26.49,7.95a2,2,0,0,1,.93,1.79A62.79,62.79,0,0,1,130.54,178l-16.78-.06-.15-8.92a14.47,14.47,0,0,1-3.33-2.44,12.5,12.5,0,0,1-3.8-7C106.18,157.61,106.41,155.16,107.08,155Z" transform="translate(-47.06 -58.23)"/><path class="cls-6" d="M121.26,73.72s-11.75,10.92-7.72,22.08c0,0-3.8-3.32-3.92-7.24,0,0-3.46-.59-2.92,6.53,0,0-.65,5.64,7.25,6.8a6.22,6.22,0,0,0,2.44,4.6c2.49,2,8.9,7,11,7.84s3.68,2.57,7.66,1.64,8.8-4.88,8.8-4.88,7.28-6.56,7.64-9.2a6.17,6.17,0,0,0,.5-2.21s5.34-1.16,5.95-5.3c0,0,.38-6.15-2.26-8,0,0-.12,5.13-3.45,8.59,0,0,1.23-7-1.66-9.15,0,0-2.34-2-7.2-2,0,0-12.47.4-16.56-3.92A19.25,19.25,0,0,1,121.26,73.72Z" transform="translate(-47.06 -58.23)"/><path class="cls-10" d="M149.48,83c-11.75-1.1-15.06.94-15.06.94-1.25.57-6.83.47-6.83.47-1.54-1.24-17,.35-17,.35v1.47h1a25.86,25.86,0,0,0,.75,9.74c.37,1.35,4.77,1.55,4.77,1.55a59.15,59.15,0,0,0,7.09,0,7.09,7.09,0,0,0,4.16-1.67c1.78-2.63,2.08-6.93,2.08-6.93,1.22-1.59,2.89-.15,2.89-.15A24,24,0,0,0,135.43,94c1.48,2.56,3.56,2.3,3.56,2.3s6.38.26,9.41-1.37,3.53-3.45,3.53-3.45a12.42,12.42,0,0,0,.56-4.72,12.13,12.13,0,0,0-.33-2h.63V83.15ZM127.73,95s-1.16,1.56-4.29,1.7c0,0-7.69.19-9.32-.84a6.42,6.42,0,0,1-1.35-3.39c-.19-2.07-.42-5.17-.42-5.17v-1s10.95-2.7,16.31.24C128.66,86.47,130,92.66,127.73,95Zm22.5-2.46a13.16,13.16,0,0,1-4.84,2.74S139,96,137.88,95s-2.87-2.87-3.06-4a5.69,5.69,0,0,1-.43-3.93,2.45,2.45,0,0,1,2.1-2s9.46-1.58,13.6,0l1.35.62S152.84,90.31,150.23,92.51Z" transform="translate(-47.06 -58.23)"/><path class="cls-11" d="M123.55,232.77s3.3-1.69,5.09,0c0,0,33-18.25,32.89-19.78s-.12-2-1.06-2.6L125,200l0,32.26" transform="translate(-47.06 -58.23)"/><path class="cls-12" d="M141.26,104.25s.05,4.51-7.58,5.42c0,0-8,.34-7.48-4.44Z" transform="translate(-47.06 -58.23)"/><path class="cls-1" d="M140.53,105.45s-2.6,2-3.74,2a.54.54,0,0,0-.56.61s.25.57.67.34C136.9,108.42,138.17,108.1,140.53,105.45Z" transform="translate(-47.06 -58.23)"/><path class="cls-12" d="M141.8,103.81s-12.1-1.21-16.09,1.16c0,0,9.47,1.91,15.31-.76Q141.42,104,141.8,103.81Z" transform="translate(-47.06 -58.23)"/><path class="cls-13" d="M125.36,104.92l.49.14c2,.53,9.71,2.23,16.15-1.25" transform="translate(-47.06 -58.23)"/><path class="cls-14" d="M131.87,98.86s-1.14-.52-1.65-.31c0,0-.41.46.31,1.24,0,0,1.14,1.24,3.51.41,0,0,1.1-.92.68-1.7a.82.82,0,0,0-.26-.08,1,1,0,0,0-.81.31A1.71,1.71,0,0,1,133,99,1.79,1.79,0,0,1,131.87,98.86Z" transform="translate(-47.06 -58.23)"/><path class="cls-15" d="M137.65,92.51s.74-7,4.72-7.86c0,0,3.94-1.21,6,1.71,0,0-2.75-2.74-6.95-.17A13.3,13.3,0,0,0,137.65,92.51Z" transform="translate(-47.06 -58.23)"/><path class="cls-16" d="M126.41,93.64s-1.26-4.66-3.81-6.32c0,0-3.18-2.07-6-.48a3.86,3.86,0,0,0-1.66,1.66s-.7.89-3.22-.3a4.12,4.12,0,0,0,2.77,1.92v.63s-2,.52-2.77-.15a3.84,3.84,0,0,0,3.44,1.33A13.06,13.06,0,0,0,116.8,94s-1.22-2.25-.74-3.25c0,0,.15-2,3.4-2.18C119.46,88.61,123.93,87.83,126.41,93.64Z" transform="translate(-47.06 -58.23)"/><path class="cls-15" d="M126.41,93.64s-.74-7-4.72-7.86c0,0-3.94-1.21-6,1.71,0,0,2.75-2.74,6.95-.17A13.3,13.3,0,0,1,126.41,93.64Z" transform="translate(-47.06 -58.23)"/><path class="cls-1" d="M137.65,92.55s-.55,2.29,2.18,1.88c0,0,3.84.41,6.13-.74a4.1,4.1,0,0,0,2.44-3.07l-.3-2.85-3.55-1-4.36,1.29-1.7,2.25Z" transform="translate(-47.06 -58.23)"/><path class="cls-1" d="M126.41,93.67s.55,2.29-2.18,1.88c0,0-3.84.41-6.13-.74a4.1,4.1,0,0,1-2.44-3.07l.3-2.85,3.55-1,4.36,1.29,1.7,2.25Z" transform="translate(-47.06 -58.23)"/><path class="cls-16" d="M137.65,92.51s1.26-4.66,3.81-6.32c0,0,3.18-2.07,6-.48a3.86,3.86,0,0,1,1.66,1.66s.7.89,3.22-.3A4.12,4.12,0,0,1,149.58,89v.63s2,.52,2.77-.15a3.84,3.84,0,0,1-3.44,1.33,13.06,13.06,0,0,1-1.66,2.11s1.22-2.25.74-3.25c0,0-.15-2-3.4-2.18C144.59,87.49,140.12,86.71,137.65,92.51Z" transform="translate(-47.06 -58.23)"/><path class="cls-17" d="M138.68,90.59s.41,3,2.7,3.4,4.8-.52,5.4-2.29a6.19,6.19,0,0,0-.18-3.73s-.44-1.33-3.75-.78S139.53,89,139.53,89A2.55,2.55,0,0,0,138.68,90.59Z" transform="translate(-47.06 -58.23)"/><path class="cls-17" d="M125.38,91.71s-.41,3-2.7,3.4-4.8-.52-5.4-2.29a6.19,6.19,0,0,1,.18-3.73s.44-1.33,3.75-.78,3.31,1.82,3.31,1.82A2.55,2.55,0,0,1,125.38,91.71Z" transform="translate(-47.06 -58.23)"/><path class="cls-18" d="M138.73,90.6a14,14,0,0,0,1.13,1.68,5.52,5.52,0,0,0,2.87,1.53s2.37.08,3.31-1.6a4.86,4.86,0,0,0,.55-1.32,5.15,5.15,0,0,0-.23-3.09l.23.05a4.83,4.83,0,0,1,.41,2.63,3.1,3.1,0,0,1-1.22,2.58,6.56,6.56,0,0,1-2.56,1,3.91,3.91,0,0,1-2.76-.44,3.27,3.27,0,0,1-.72-.66A3.61,3.61,0,0,1,138.73,90.6Z" transform="translate(-47.06 -58.23)"/><path class="cls-18" d="M125.33,91.72a14,14,0,0,1-1.13,1.68,5.52,5.52,0,0,1-2.87,1.53S119,95,118,93.34a4.86,4.86,0,0,1-.55-1.32,5.15,5.15,0,0,1,.23-3.09l-.23.05a4.83,4.83,0,0,0-.41,2.63,3.1,3.1,0,0,0,1.22,2.58,6.56,6.56,0,0,0,2.56,1,3.91,3.91,0,0,0,2.76-.44,3.27,3.27,0,0,0,.72-.66A3.61,3.61,0,0,0,125.33,91.72Z" transform="translate(-47.06 -58.23)"/><path d="M140.87,88.41a2.48,2.48,0,0,0,.37,3.4c1.75,1.66,3.7-.41,3.7-.41s1.73-3-1.63-4.11C143.31,87.28,141,87.23,140.87,88.41Z" transform="translate(-47.06 -58.23)"/><path d="M123.19,89.53a2.48,2.48,0,0,1-.37,3.4c-1.75,1.66-3.7-.41-3.7-.41s-1.73-3,1.63-4.11C120.75,88.4,123,88.35,123.19,89.53Z" transform="translate(-47.06 -58.23)"/><path class="cls-7" d="M120,127.28s-6.8-2.92-11.37,4.71h0s-2.1,1.78-3.43,10.38h0l-9.62,31.22,12.8,3.43,2.46-10.17s-8.15-7.5-2-15h0l4.17-3.24s7.71-6.81,7-21.36" transform="translate(-47.06 -58.23)"/><path class="cls-19" d="M117.71,141.55s-2.64,6.6-6.6,8.36c0,0-8.07,4.55-2.35,14.08s14.37,5.72,14.37,5.72" transform="translate(-47.06 -58.23)"/><path class="cls-20" d="M141.14,216.4l-11.59,7.67-2.64-1L138.14,215,135,213.51l-10.13,8.75,0-3.47,7.19-6.64-4.22-2.1-2.92,3-.09-4.3" transform="translate(-47.06 -58.23)"/><polyline class="cls-21" points="77.81 164.04 83.9 166.55 94.64 160.56 96.72 159.41 77.81 150.53 77.81 164.04"/><polyline class="cls-20" points="77.81 153.03 94.64 160.56 91.92 162.08 77.73 155.41 77.73 157.91 89.6 163.37 87.26 164.67 77.85 160.56 77.81 164.04 81.58 165.59 83.9 166.55"/><path class="cls-22" d="M125.93,207s1.29,0,1.16,1.16a4.77,4.77,0,0,0-1.64,1.89l-1-.57Z" transform="translate(-47.06 -58.23)"/><path class="cls-22" d="M125.07,212.44s1.36,0,.91,1.7a4,4,0,0,0-1.55,1.84l-1.21-.87Z" transform="translate(-47.06 -58.23)"/><path class="cls-22" d="M127.06,214.3a1,1,0,0,1,.95,0,1,1,0,0,1,.3,1.31c-.25.23-.51.48-.77.77a12.32,12.32,0,0,0-1,1.27l-1-.8Z" transform="translate(-47.06 -58.23)"/><path class="cls-22" d="M129.89,216.2s1.28-.39,1,.86c0,0-1.51.88-1.43,1.74l-.86-.73Z" transform="translate(-47.06 -58.23)"/><path class="cls-6" d="M164.68,196.07s-9.55,9-13.29,9.78a13.94,13.94,0,0,1-8.14-1.57s-4.8-2.31-5.76-2.16-6.75,0-8.19.66c0,0-1.16-.39-3.37,4.24a1,1,0,0,1,1.16,1.16s2.12-2.89,2-3.18-.48.39,3.37.19c0,0,.57.05.3.36,0,0-4.22,2.13-4.92,3.14q-.6.73-1.21,1.54c-.57.76-1.1,1.5-1.58,2.22,0,0,1,.19,1,.74,0,0,.08,1-.15,1.12a17.23,17.23,0,0,1,3.22-4,17.61,17.61,0,0,1,7.63-4.09s-6.49,2.93-9.67,8.1c0,0,1.42-.81,1.25,1.3a15.47,15.47,0,0,1,5.27-4.68l2-.86,2.7-1.17s-7.35,5-8.38,7.3c0,0,1.29-.39,1,.86,0,0,5-4.47,7.86-4.08,0,0,7.09,2.23,11.17.82S175.67,200,175.67,200s3.57-2.38,3.57-5.58-6.34-4.31-6.34-4.31S168.77,189.55,164.68,196.07Z" transform="translate(-47.06 -58.23)"/><path class="cls-23" d="M71,170.46s1.29-2.19,4.62-1.64,48.6,10.58,49.17,15.19,0,45.84,0,45.84,2.62,4.62-5.8,2.22S75.78,216,75.78,216s-2.22-2.6-3-9S69.68,175.61,71,170.46Z" transform="translate(-47.06 -58.23)"/><path class="cls-8" d="M124.77,147.75l1.34,5-.27,3.13.76,0,1-2.48a19.42,19.42,0,0,1,4.14-5.9s-3.67,2.19-4.67,5A17.15,17.15,0,0,0,124.77,147.75Z" transform="translate(-47.06 -58.23)"/><path class="cls-8" d="M128.77,129.56l4,.9s2.62-1.26,3.43-.9,5.24,1.63,5.24,1.63l-5.69-.85s-2.8,1.39-3.52,1.3S128.77,129.56,128.77,129.56Z" transform="translate(-47.06 -58.23)"/></svg>