<svg xmlns="http://www.w3.org/2000/svg" viewBox="0 0 30.3 30.16"><defs><style>.cls-1{fill:#dd8ece;}.cls-2{fill:#f2bde7;}.cls-3{fill:#fff;}</style></defs><title>pinkerflower</title><g id="Layer_2" data-name="Layer 2"><ellipse class="cls-1" cx="11.09" cy="9.21" rx="3.11" ry="8.4" transform="translate(-4.62 8.54) rotate(-39.62)"/><ellipse class="cls-2" cx="22.8" cy="10.43" rx="8.4" ry="3.11" transform="translate(-2.71 16.28) rotate(-39.62)"/><ellipse class="cls-2" cx="9.98" cy="21.04" rx="8.4" ry="3.11" transform="translate(-12.42 10.55) rotate(-39.62)"/><ellipse class="cls-1" cx="21.81" cy="22.16" rx="3.11" ry="8.4" transform="translate(-10.41 18.35) rotate(-39.62)"/><ellipse class="cls-2" cx="8.93" cy="11.89" rx="3.11" ry="8.4" transform="translate(-6.99 13.9) rotate(-63.38)"/><ellipse class="cls-1" cx="12.68" cy="23.16" rx="8.4" ry="3.11" transform="translate(-15 23.47) rotate(-63.38)"/><ellipse class="cls-2" cx="23.96" cy="19.42" rx="3.11" ry="8.4" transform="translate(-5.43 31.48) rotate(-63.38)"/><ellipse class="cls-1" cx="20.14" cy="8.29" rx="8.4" ry="3.11" transform="translate(2.41 21.93) rotate(-63.38)"/></g><g id="Capa_1" data-name="Capa 1"><ellipse class="cls-2" cx="15.16" cy="8.33" rx="2.48" ry="6.71"/><ellipse class="cls-1" cx="21.73" cy="15.03" rx="6.71" ry="2.48"/><ellipse class="cls-1" cx="8.45" cy="15.03" rx="6.71" ry="2.48"/><ellipse class="cls-2" cx="15.16" cy="21.74" rx="2.48" ry="6.71"/><circle class="cls-3" cx="15.03" cy="15.03" r="3.08"/></g></svg>