<svg id="Layer_1" data-name="Layer 1" xmlns="http://www.w3.org/2000/svg" viewBox="0 0 199.87 139.13"><defs><style>.cls-1{fill:#606060;opacity:0.11;}.cls-2{fill:#ccb6dd;}.cls-3{fill:#8b6508;}.cls-4{fill:#a07a65;stroke:#896858;}.cls-16,.cls-17,.cls-30,.cls-36,.cls-4{stroke-miterlimit:10;}.cls-16,.cls-4{stroke-width:0.5px;}.cls-5{fill:#ffdfcb;}.cls-6{fill:#93684c;}.cls-7{fill:#96680c;}.cls-8{fill:#aa775b;}.cls-9{fill:#f1b791;}.cls-10{fill:#fff;}.cls-11{fill:#020201;}.cls-12{fill:#b45b4b;}.cls-13,.cls-20{fill:#c886ae;}.cls-14{fill:#5b5b5b;}.cls-15{fill:#e5c7b7;opacity:0.54;}.cls-16,.cls-30,.cls-36{fill:none;}.cls-16{stroke:#d6b9ab;opacity:0.55;}.cls-17{fill:#fcfcfc;}.cls-17,.cls-30{stroke:#c6c6c6;}.cls-17,.cls-30,.cls-36{stroke-width:0.25px;}.cls-18{fill:#760037;}.cls-19{fill:#3a2116;}.cls-20{opacity:0.47;}.cls-21{fill:#020202;}.cls-22{fill:#456626;}.cls-23{fill:#2e490a;}.cls-24{fill:#eae8e9;}.cls-25{fill:#515151;}.cls-26{fill:#3d3d3d;}.cls-27{fill:#bc8ea1;opacity:0.5;}.cls-28{fill:#d5cec9;}.cls-29{fill:#e2e2e2;}.cls-31{fill:#fcd2c5;}.cls-32{fill:#e8c2b8;}.cls-33{fill:#9b9998;opacity:0.22;}.cls-34{fill:#a64951;}.cls-35{fill:#fdd7c2;}.cls-36{stroke:#b09bc4;}.cls-37{fill:#b09bc4;}.cls-38{fill:#1c1c1c;}</style></defs><title>readinggirl</title><ellipse class="cls-1" cx="135.65" cy="127.46" rx="42.86" ry="5.58"/><polyline class="cls-2" points="45.74 108.06 46.3 116.88 59.38 121.28 62.86 116.88 56.24 105.55 45.74 108.06"/><path class="cls-3" d="M125.75,81s-24.54,1-26.16,24.6c0,0-2,29.78,3.48,39s6.84,6.16,6.84,6.16l13.35,3.82,7.63.51L152,151.25l2.17-6.48,1.58-11.17s1.25-14.41,0-23.32l-1.25-8.91s-4.37-11-7.77-13.12S137.34,80,125.75,81Z" transform="translate(-49.78 -80.89)"/><line class="cls-4" x1="105.69" y1="51.75" x2="107.34" y2="69.24"/><path class="cls-5" d="M122.79,151.31l2.32-1.42-.37-3.54s-5.56-2.67-7.9-4.84c0,0-6.75-3.89-8.1-7.47l-1.12-2.47s-7.06-.88-7.23-6.09c0,0-1.3-6.42,1.91-7.89h1s1.47,5.55,4.42,7.89a20.75,20.75,0,0,1-.81-4.66,21.42,21.42,0,0,1,1.83-9.87l8.2-3.79a43.59,43.59,0,0,0,11-8.68c2.26,1.48,4.68,3,7.26,4.42a135.69,135.69,0,0,0,12.67,6.33,81.23,81.23,0,0,1,1.42,8.85c0,.1,0,.71.06,1.54,0,.28.05.58.1.94.26,2,.68,2.41-.16,4,0,0,4.2-5.43,3.7-9.09,0,0,4.29,3.91,1.52,10.23a9.23,9.23,0,0,1-5.81,4s.38,4.8-8,11.49a57.54,57.54,0,0,1-5.19,3.93s-.2,3.13,1.17,4.44l1.83,1-4,5.61L123,153.55Z" transform="translate(-49.78 -80.89)"/><path class="cls-3" d="M131.93,107.19l.49,1.9S143,105,146.85,106.23l-8.34-.72S132.46,106.42,131.93,107.19Z" transform="translate(-49.78 -80.89)"/><path class="cls-3" d="M124.34,107.19l-.49,1.9s-10.63-4.12-14.43-2.86l8.34-.72S123.81,106.42,124.34,107.19Z" transform="translate(-49.78 -80.89)"/><path class="cls-6" d="M127.93,98.5l12.71,6.23s6.89,2.72,7.23,4.52h0s-18.75-7.77-19.93-10.75" transform="translate(-49.78 -80.89)"/><path class="cls-6" d="M127.93,98.5,108.68,111s14.74-5,19.25-12.46" transform="translate(-49.78 -80.89)"/><polygon class="cls-6" points="99.56 51.07 95.22 64.69 97.03 64.24 99.56 51.07"/><polygon class="cls-6" points="58.04 53.66 64.87 66.21 63.01 66.11 58.04 53.66"/><polygon class="cls-6" points="56.18 56.95 62.2 69.91 60.35 69.69 56.18 56.95"/><polygon class="cls-6" points="103.06 54.55 98.72 68.17 100.53 67.72 103.06 54.55"/><path class="cls-7" d="M105.3,100s-1.9,2.23-1.34,4.59c0,0,.18-1.81,1.34-1a5.48,5.48,0,0,0,0,2.15s.73-1.81,1.47-1.81a8.71,8.71,0,0,0,.23,2.66s.62-2.16,1.2-2.16l.27,2.16.89-.39.39.66s2.35-4.63,2.93-4.48c0,0-3.32,1.24-3.4,1.81,0,0-.62-2.7,0-3.17a13.89,13.89,0,0,0-1.89,2.38s-.46-3.42-.12-3.44l-1.78,1.72Z" transform="translate(-49.78 -80.89)"/><path class="cls-8" d="M116.63,85.93s1.61.18,1.73.6c0,0,1.76-1.43,3.22-1.13,0,0-2.23.27-2.83,1.67l0,.27s1.46-.86,2.41-.51c0,0-2,.3-2.38,1.28l1-.3-.89.57a12.29,12.29,0,0,1,3.72-.57s-3.16,1.16-3.63,2c0,0,1.49-.48,2-.21,0,0-1.64.21-2,.83,0,0,2.56-.77,3.63.36,0,0-2.47-.83-3.93.3a3.61,3.61,0,0,0-2-.42,2.43,2.43,0,0,1,1.34-.45,3.92,3.92,0,0,0-3.69.18s.36-1.13,3.72-1.4c0,0-.48-.87-2.14-.78A4.19,4.19,0,0,1,118.2,88a2.74,2.74,0,0,0-2.44-.92,4.1,4.1,0,0,1,2.29-.09S117.13,85.93,116.63,85.93Z" transform="translate(-49.78 -80.89)"/><path class="cls-9" d="M127.58,128.85s-1.48-.67-2.15-.4c0,0-.54.6.4,1.61,0,0,1.48,1.61,4.57.54,0,0,1.43-1.2.88-2.21a1.07,1.07,0,0,0-.33-.1,1.36,1.36,0,0,0-1.06.4,2.22,2.22,0,0,1-.82.36A2.32,2.32,0,0,1,127.58,128.85Z" transform="translate(-49.78 -80.89)"/><path class="cls-10" d="M122.58,135.48l11,.06v2.07s-10.64.9-11.14-.28A1.73,1.73,0,0,1,122.58,135.48Z" transform="translate(-49.78 -80.89)"/><path class="cls-11" d="M120.49,134.79s-.36-.17-.36.85.61,0,.61,0,1,.8,1,1.32l.88,2.12a5.7,5.7,0,0,0,2,1.76,7.71,7.71,0,0,0,7.28,0s1.24-.85,1.43-1.38c0,0,1.1-2.15,1.16-2.43,0,0,.55-1.38,1-1.24,0,0,.28.06.25.25,0,0,.36.08.28-.63,0,0-.14-1-.61-.33a.59.59,0,0,1-.63.47,6,6,0,0,1-1.19,0s.3,1.63-1.68,1.9a29.41,29.41,0,0,1-5.18.22c-2.43-.17-3.34-.44-3.64-.8s-.3-.19-.52-1.38H121.2s-.52-.06-.47-.36C120.74,135.12,120.73,134.66,120.49,134.79Z" transform="translate(-49.78 -80.89)"/><path class="cls-12" d="M123.76,140.43a5.18,5.18,0,0,1,4.36-1.14,5,5,0,0,1,2.95,2.06,7.9,7.9,0,0,1-2.32.52,7.7,7.7,0,0,1-3.71-.67A7.15,7.15,0,0,1,123.76,140.43Z" transform="translate(-49.78 -80.89)"/><path class="cls-13" d="M122.54,135.54s4.81-4,11.21,0Z" transform="translate(-49.78 -80.89)"/><path class="cls-13" d="M122.64,139.09a6.28,6.28,0,0,0,2.77,3.37c1.74,1,4.45,1.33,6.19-.25.74-.67,1.73-1.8,1.66-2.62a7.28,7.28,0,0,1-3.33,1.94,7.2,7.2,0,0,1-5.32-.7A6.81,6.81,0,0,1,122.64,139.09Z" transform="translate(-49.78 -80.89)"/><path class="cls-14" d="M217.08,179.12h1.18s1.15-3.49,6.37-2.35c0,0,2,.64,4.46,6.12a29.69,29.69,0,0,0,8.92,3.82s4.08,1.15,5.61,7.39c0,0,3.31-1,4.46.76,0,0,2.8,2.42.89,2.55,0,0-.25.64-3.44.76,0,0-4-.13-5.23-.76s-9.05-1.95-9.05-1.95-8.9-2.77-12-.73S217.08,179.12,217.08,179.12Z" transform="translate(-49.78 -80.89)"/><path class="cls-5" d="M192.75,161.23c-.8-9.25-2-17.87-3.46-25.78a27.31,27.31,0,0,0,.18-11,4.85,4.85,0,0,0,3-3,4.28,4.28,0,0,0,0-2.34q-1.92-2.19-1.77-2.35t5.16,4.13a23.44,23.44,0,0,0,9.77,12.38,10.87,10.87,0,0,1,1.17,1.64,11,11,0,0,1,1.28,3.38,2.94,2.94,0,0,1-2.67.91q-2.82-1.42-3.34-.82-.67.77,2.55,4.94s1,2.31,2.36,5.76c3.73,9.24,10.52,26.66,10,30.05,0,0,3.3,20.41,1.73,22.93,0,0-1.88,3.93-8.64,4.24l-16.81-5.79A278.53,278.53,0,0,0,192.75,161.23Z" transform="translate(-49.78 -80.89)"/><path class="cls-14" d="M188.67,123.8s-1.1-8.77,5.65-8.82c0,0,3.34-1.48,6.9,3.17q1.23,1.43,2.6,2.89c2.09,2.22,4.17,4.21,6.19,6a10.05,10.05,0,0,1,5.9,6.5,9.72,9.72,0,0,1-3.65,10l-6.8-4.36" transform="translate(-49.78 -80.89)"/><path class="cls-15" d="M197.25,192.1c2.1-.61,4,1.67,8.35,4.22a38.72,38.72,0,0,0,10.26,4.17,9.28,9.28,0,0,1-1.47,2.74,9.53,9.53,0,0,1-4.21,3,70.12,70.12,0,0,0-6.79-2.82s-2.19-.78-10-3h0C194.2,194.18,195.89,192.5,197.25,192.1Z" transform="translate(-49.78 -80.89)"/><path class="cls-16" d="M197.4,169.33s10,2.5,13.84,12.51l2.62,7" transform="translate(-49.78 -80.89)"/><path class="cls-17" d="M51.17,212.49l4.16,3.06S83.6,193,103.65,217.3a24.73,24.73,0,0,0,9.54,0s12.25-11.27,21.55-9.08c0,0,14.55,3.72,22,10.83l32.71-3.28.77-3.23S176.75,200.49,169,198.87a37,37,0,0,0-19-2h0s-21.5,2.81-26.67,7.52c0,0-30.93-11.78-40.48-8.22C82.84,196.14,62.4,198.49,51.17,212.49Z" transform="translate(-49.78 -80.89)"/><path class="cls-18" d="M113.19,217.3c16.73-18,29.13-6.57,29.13-6.57l-29.13,6.57" transform="translate(-49.78 -80.89)"/><polyline class="cls-17" points="109.47 135.27 140.16 132.76 139.86 134.02 108.07 136.87"/><path class="cls-19" d="M146,110.07c-12-1.13-15.4,1-15.4,1-1.28.58-7,.48-7,.48-1.58-1.26-17.43.36-17.43.36v1.5h1c-.67,3.81.38,8.58.76,10s4.87,1.58,4.87,1.58a60.5,60.5,0,0,0,7.25,0,7.25,7.25,0,0,0,4.25-1.71c1.82-2.69,2.12-7.09,2.12-7.09,1.25-1.63,3-.16,3-.16a24.49,24.49,0,0,0,2.24,5.39c1.52,2.62,3.64,2.35,3.64,2.35s6.52.27,9.63-1.4,3.61-3.53,3.61-3.53a12.7,12.7,0,0,0,.57-4.83,12.41,12.41,0,0,0-.34-2.08h.65v-1.65Zm-22.25,12.24s-1.19,1.6-4.38,1.74c0,0-7.86.19-9.53-.86a6.56,6.56,0,0,1-1.38-3.46c-.19-2.11-.43-5.29-.43-5.29v-1.07s11.2-2.76,16.68.24C124.7,113.62,126,119.95,123.75,122.31Zm23-2.51a13.46,13.46,0,0,1-5,2.8s-6.53.73-7.67-.29-2.93-2.94-3.13-4.08a5.82,5.82,0,0,1-.44-4,2.5,2.5,0,0,1,2.14-2s9.67-1.61,13.91,0l1.38.63S149.43,117.54,146.76,119.8Z" transform="translate(-49.78 -80.89)"/><path class="cls-20" d="M133.89,119.8s.75-7.18,4.82-8c0,0,4-1.24,6.18,1.75,0,0-2.81-2.8-7.11-.18A13.6,13.6,0,0,0,133.89,119.8Z" transform="translate(-49.78 -80.89)"/><path class="cls-21" d="M122.4,120.94s-1.29-4.76-3.89-6.46c0,0-3.25-2.12-6.16-.49a3.94,3.94,0,0,0-1.7,1.7s-.72.91-3.29-.3a4.21,4.21,0,0,0,2.83,2V118s-2.08.53-2.83-.15a3.92,3.92,0,0,0,3.52,1.36,13.36,13.36,0,0,0,1.7,2.15s-1.25-2.31-.76-3.33c0,0,.15-2.08,3.48-2.23C115.29,115.8,119.87,115,122.4,120.94Z" transform="translate(-49.78 -80.89)"/><path class="cls-20" d="M122.4,120.94s-.75-7.18-4.82-8c0,0-4-1.24-6.18,1.75,0,0,2.81-2.8,7.11-.18A13.6,13.6,0,0,1,122.4,120.94Z" transform="translate(-49.78 -80.89)"/><path class="cls-10" d="M133.89,119.84s-.57,2.34,2.23,1.93c0,0,3.93.42,6.27-.76a4.19,4.19,0,0,0,2.49-3.14l-.3-2.91L141,114l-4.46,1.32-1.74,2.31Z" transform="translate(-49.78 -80.89)"/><path class="cls-10" d="M122.4,121s.57,2.34-2.23,1.93c0,0-3.93.42-6.27-.76A4.19,4.19,0,0,1,111.4,119l.3-2.91,3.63-1,4.46,1.32,1.74,2.31Z" transform="translate(-49.78 -80.89)"/><path class="cls-21" d="M133.89,119.8s1.29-4.76,3.89-6.46c0,0,3.25-2.12,6.16-.49a3.94,3.94,0,0,1,1.7,1.7s.72.91,3.29-.3a4.21,4.21,0,0,1-2.83,2v.64s2.08.53,2.83-.15a3.92,3.92,0,0,1-3.52,1.36,13.36,13.36,0,0,1-1.7,2.15s1.25-2.31.76-3.33c0,0-.15-2.08-3.48-2.23C141,114.66,136.42,113.86,133.89,119.8Z" transform="translate(-49.78 -80.89)"/><path class="cls-22" d="M121.17,118.59s-.42,3-2.76,3.48-4.91-.53-5.52-2.34a6.33,6.33,0,0,1,.19-3.82s.45-1.36,3.84-.79,3.38,1.87,3.38,1.87A2.61,2.61,0,0,1,121.17,118.59Z" transform="translate(-49.78 -80.89)"/><path class="cls-22" d="M135.14,117.92s.42,3,2.76,3.48,4.91-.53,5.52-2.34a6.33,6.33,0,0,0-.19-3.82s-.45-1.36-3.84-.79-3.38,1.87-3.38,1.87A2.61,2.61,0,0,0,135.14,117.92Z" transform="translate(-49.78 -80.89)"/><path class="cls-23" d="M135,117.84a14.31,14.31,0,0,0,1.16,1.72,5.64,5.64,0,0,0,2.93,1.56s2.42.09,3.38-1.64a5,5,0,0,0,.56-1.36,5.27,5.27,0,0,0-.24-3.16l.23.06a4.94,4.94,0,0,1,.42,2.69,3.18,3.18,0,0,1-1.25,2.64,6.71,6.71,0,0,1-2.62,1,4,4,0,0,1-2.83-.45,3.35,3.35,0,0,1-.73-.68A3.69,3.69,0,0,1,135,117.84Z" transform="translate(-49.78 -80.89)"/><path class="cls-23" d="M121.13,118.68A14.31,14.31,0,0,1,120,120.4,5.64,5.64,0,0,1,117,122s-2.42.09-3.38-1.64a5,5,0,0,1-.56-1.36,5.27,5.27,0,0,1,.24-3.16l-.23.06a4.94,4.94,0,0,0-.42,2.69,3.18,3.18,0,0,0,1.25,2.64,6.71,6.71,0,0,0,2.62,1,4,4,0,0,0,2.83-.45,3.35,3.35,0,0,0,.73-.68A3.69,3.69,0,0,0,121.13,118.68Z" transform="translate(-49.78 -80.89)"/><path d="M137.19,115.6a2.54,2.54,0,0,0,.38,3.48c1.79,1.7,3.79-.42,3.79-.42s1.76-3.1-1.67-4.21C139.68,114.44,137.33,114.39,137.19,115.6Z" transform="translate(-49.78 -80.89)"/><path d="M119.1,116.74a2.54,2.54,0,0,1-.38,3.48c-1.79,1.7-3.79-.42-3.79-.42s-1.76-3.1,1.67-4.21C116.61,115.59,119,115.53,119.1,116.74Z" transform="translate(-49.78 -80.89)"/><polygon class="cls-24" points="93.14 36.78 91.42 38.73 90.6 36.27 93.14 36.78"/><polygon class="cls-24" points="66.93 37.82 65.82 40.16 64.34 38.02 66.93 37.82"/><path class="cls-14" d="M204.68,143.3c-.13-.28-.32-.7-.52-1.23-.28-.74-.31-.91-.54-1.62-.37-1.18-.71-1.44-.57-1.63s.92-.18,3.28.91a9.83,9.83,0,0,0,1.8-1.46c3.22-3.11-19.46-14.47-19.46-14.47l.62,11.65,3.13,23.47.32,2.32s3.94,4.74,4.37,7.15l16.64-1.76Z" transform="translate(-49.78 -80.89)"/><path class="cls-25" d="M207.39,140.29s-9.68-12.39-9.68-13.86l5.34,12.39s.62-.7,4.34,1.47" transform="translate(-49.78 -80.89)"/><path class="cls-26" d="M228.26,181.13a8.62,8.62,0,0,1-3.88,3.49l4.72-1.73Z" transform="translate(-49.78 -80.89)"/><ellipse class="cls-27" cx="65.7" cy="48.77" rx="5.56" ry="2.3"/><ellipse class="cls-27" cx="91.63" cy="48.77" rx="5.56" ry="2.3"/><path class="cls-28" d="M110.72,217.82s.33,2,4.62,2.2L157,219a32.24,32.24,0,0,0-14.41-8.32Z" transform="translate(-49.78 -80.89)"/><path class="cls-28" d="M51.17,212.49a2.43,2.43,0,0,0-1.16.8.89.89,0,0,0-.2.33c-.25,1,.89,1.61.89,1.61l4.58.35,48.37,1.72s-6.9-7.77-9.45-7.93l-23.87-1.44a45.84,45.84,0,0,0-13.89,6.81Z" transform="translate(-49.78 -80.89)"/><path class="cls-18" d="M55.35,215.12c.94,1.69,13.31-2.5,23.76-8.83.94-.57,1.72-1.07,2.28-1.44l-18.7,2.79C56.19,212.64,55,214.47,55.35,215.12Z" transform="translate(-49.78 -80.89)"/><path class="cls-29" d="M156.73,219l3.73-4.28S148.57,204,140,203.45c0,0-13.74-2.77-25.29,6.59l-6.7,5.31S103.25,207,96.35,205c0,0-13.24-5.66-22.25-2.89,0,0-11.55,2.19-16.74,6.47s-5.77,5.08-5.77,5.08l3.69,2c1.07-.8,2.24-1.61,3.52-2.41A51.7,51.7,0,0,1,64,210.31q3.09-1.2,6.32-2.38,2.78-1,5.5-1.94a35.82,35.82,0,0,1,20.28,4.36,37,37,0,0,1,7.54,6.94h9.24a41.41,41.41,0,0,1,7-5.58c2.95-1.86,5.4-3.41,9.1-4.09,1.75-.32,6-1.12,10,.91,1.13.57.9.69,3.3,2.19A71.38,71.38,0,0,0,149,214.3,57.25,57.25,0,0,1,156.73,219Z" transform="translate(-49.78 -80.89)"/><line class="cls-30" x1="110.35" y1="133.88" x2="140.42" y2="131.65"/><path class="cls-5" d="M112.67,144.62l4.22,2.85s.67,7.64,6.79,11.14h0s6.32,4.58,12.21-.31h0l6.91-9.45,1.39-2.76,2.36-1.46h2.79L148.45,159l-3.74,5.84-6.6,7.23-9.51,3.55-9.51-1.33-4.88-4.12-6.85-4.88,5.32-20.65" transform="translate(-49.78 -80.89)"/><path class="cls-5" d="M117,147.57s5.9,5.61,14.13,5a19.94,19.94,0,0,0,8.45-2.79,21.78,21.78,0,0,0,4.64-3.61,36.1,36.1,0,0,1-4.13,7.24c-2.56,3.66-6.11,7.42-10.07,7.78C130,161.23,118.53,159.56,117,147.57Z" transform="translate(-49.78 -80.89)"/><path class="cls-31" d="M139.85,149.59s4-2.55,4.35-3.5c0,0-2.23,5.84-4.73,8.18,0,0-1.51,3-7.44,6.49C132,160.75,140.84,154.26,139.85,149.59Z" transform="translate(-49.78 -80.89)"/><path class="cls-32" d="M124.73,146.35a10.83,10.83,0,0,0,4.36.64,12.89,12.89,0,0,0,6.45-1.86,9.77,9.77,0,0,0,.06,1.31c0,.24.06.46.1.67a11.58,11.58,0,0,1-3.2,1.5,12.31,12.31,0,0,1-7.57-.32Z" transform="translate(-49.78 -80.89)"/><path class="cls-31" d="M116.88,147.47a9.32,9.32,0,0,0,1,1,9.52,9.52,0,0,0,2.91,1.75,11.32,11.32,0,0,0,1.08,4.8,11.88,11.88,0,0,0,5.92,5.63,16.62,16.62,0,0,1-9-7.37A15.5,15.5,0,0,1,116.88,147.47Z" transform="translate(-49.78 -80.89)"/><path class="cls-2" d="M149.2,144.87a14.23,14.23,0,0,1,8.11-2.32,8.39,8.39,0,0,1,6.82,3.48s1.67,5.92,1.16,8.63c0,0,6.18-.51,9.4,2.45s4,2.06,8.37,8.5,4.76,17,4.76,17,.26,9.91-1.8,14-3.6,3.86-3.6,3.86h-8.63s-3.35-5.93-9.78-6.05v2.45a81.36,81.36,0,0,0-22,1A72.64,72.64,0,0,0,124,203.45h-3.48s1.93-3.73-3.6-6.18h26.49s.14-18.77,1.61-22.58,2.09-12.9,2.09-12.9l.25-2.21Z" transform="translate(-49.78 -80.89)"/><path class="cls-10" d="M147.32,159.59s-16.34,32.07-34.65,2.83v32.44s2,1.09,4.22,2.41h26.49s-.11-19.51,1.61-22.58S147.32,159.59,147.32,159.59Z" transform="translate(-49.78 -80.89)"/><path class="cls-33" d="M112.64,185.88a7.24,7.24,0,0,1,2.69,0,7.5,7.5,0,0,1,4,2.21s4.55,4.67,9.09,3.2l7.25-6.64L133.44,191a18.86,18.86,0,0,0,10.16-2.93l-.23,9.16H116.88l-4.22-2.41Z" transform="translate(-49.78 -80.89)"/><path class="cls-34" d="M91.6,195.57" transform="translate(-49.78 -80.89)"/><path class="cls-34" d="M91.6,195.57l.77-.35.28.42-.13.35-.47.46s-.82.26-1,.62l-.4-.38a3.56,3.56,0,0,1,.93-1.11" transform="translate(-49.78 -80.89)"/><path class="cls-34" d="M91.89,191.78a1.41,1.41,0,0,1,.52-.15l.64.15-.28.16-.21.3a3,3,0,0,0-1,1.21l-.51-.36A1.79,1.79,0,0,1,91.89,191.78Z" transform="translate(-49.78 -80.89)"/><path class="cls-34" d="M95.55,197l.49-.23.31.46v.28l-.27.27s-.65,0-.92,1l-.47-.31s0-.5.86-1.48" transform="translate(-49.78 -80.89)"/><path class="cls-34" d="M99.46,197.84l.56-.13.12.27v.24l-.42.27s-.69-.18-.92.37l-.29-.36a1.78,1.78,0,0,1,1-.67" transform="translate(-49.78 -80.89)"/><path class="cls-35" d="M116.88,197.27c-2-.55-3.09-1.63-5-3.32-1.52-1.33-3.74-3.22-6.62-5.48,0,0-.42-.45-1.74-.45a24.8,24.8,0,0,0-2.73-.21,12.33,12.33,0,0,0-6,1.52,14.25,14.25,0,0,0-1.37,1,13.12,13.12,0,0,0-1.56,1.49c.5-.09.65,0,.71.07s-.1.52-.1.53a.74.74,0,0,0,.07-.14c.08-.2.5-.5,2-.91.6-.71,2.69-1.24,8.92-.69a15.51,15.51,0,0,0-5,.67,15.82,15.82,0,0,0-6.82,4.27.67.67,0,0,1,.77,0c.15.17.09.62-.33.91a14.91,14.91,0,0,1,10-2.55,8.9,8.9,0,0,0-2.81.55A9.06,9.06,0,0,0,95.55,197a.52.52,0,0,1,.62.28.5.5,0,0,1-.09.51,9.38,9.38,0,0,1,2.69-1.55,10.3,10.3,0,0,1,7.16.17c-1.15.07-2.11.19-2.84.3a11.55,11.55,0,0,0-2.07.41,7.89,7.89,0,0,0-1.58.73.41.41,0,0,1,.53.3.39.39,0,0,1-.27.36,13.84,13.84,0,0,1,6.51-.53s4.08,4.29,6.42,4.86,9.34.64,9.34.64l-.29-6.19A9.47,9.47,0,0,1,116.88,197.27Z" transform="translate(-49.78 -80.89)"/><path class="cls-2" d="M112.67,144.62v50.24l-7.42-6.38s-3.72-1.2-6.39-.52a28.12,28.12,0,0,0-3.35,1S92.75,158.54,97,152.62C97,152.62,99.39,137.65,112.67,144.62Z" transform="translate(-49.78 -80.89)"/><line class="cls-36" x1="59.82" y1="87.92" x2="59.38" y2="110.75"/><line class="cls-36" x1="100.22" y1="115.85" x2="101.91" y2="86.06"/><path class="cls-36" d="M165.34,153.68s0,6.6-.05,14.7c-.13,10.86-.52,24.41-1.64,28.36" transform="translate(-49.78 -80.89)"/><path class="cls-36" d="M170.81,181.84s-1.27-12.16-5.51-13.46" transform="translate(-49.78 -80.89)"/><path class="cls-37" d="M187.33,191.7l-6.12-.73s-2-7.89-1.43-9.13c0,0-.65,7.35-2.21,8.26,0,0-.78-6.24,0-9,0,0-1.17,8.45-2.86,9.11s-9.35,4.32-9.35,4.32,6,.84,8.44,5.93h8.63S186.84,198.11,187.33,191.7Z" transform="translate(-49.78 -80.89)"/><path class="cls-37" d="M143.6,188.12s7.08-2.33,7.19-5.23L150,196.84l-6.62.45Z" transform="translate(-49.78 -80.89)"/><path class="cls-38" d="M165.29,151.83s14-2.34,19.6,1.58a41.36,41.36,0,0,1,7.86,7.82c2.36,3,4.09,5.83,4.37,7.15.56,2.58,4.45,8.84,1.81,20.1l-5.56,12h-11s6.56-1.51,5.42-18.64a34.2,34.2,0,0,0-7.25-19.5l-15.23-7.7Z" transform="translate(-49.78 -80.89)"/></svg>