<svg xmlns="http://www.w3.org/2000/svg" viewBox="0 0 281.38 448.54"><defs><style>.cls-1{fill:#fcd2c3;}.cls-2{fill:#5e3825;stroke:#44291d;}.cls-13,.cls-14,.cls-2,.cls-20,.cls-4,.cls-5,.cls-6{stroke-miterlimit:10;}.cls-13,.cls-14,.cls-2,.cls-20,.cls-4,.cls-6{stroke-width:2px;}.cls-3{fill:#6b4738;}.cls-4{fill:#fedecb;stroke:#edccbe;}.cls-5{fill:#663d2b;stroke:#3d251b;stroke-width:0.2px;}.cls-6,.cls-8{fill:#fff;}.cls-6{stroke:#c1c1c1;}.cls-7{fill:#ffa6df;}.cls-9{fill:#020201;}.cls-10,.cls-16{fill:#c886ae;}.cls-11{fill:#b45b4b;}.cls-12{fill:#efb695;}.cls-13,.cls-20{fill:#fedfce;}.cls-13{stroke:#ddbdaf;}.cls-14,.cls-15{fill:#fcd0fc;}.cls-14{stroke:#f2baf4;}.cls-16{opacity:0.47;}.cls-17{fill:#020202;}.cls-18{fill:#456626;}.cls-19{fill:#2e490a;}.cls-20{stroke:#e8cdbf;}.cls-21{fill:#f2baf4;}.cls-22{fill:#efefef;}</style></defs><title>thank-you</title><g id="Layer_1" data-name="Layer 1"><path class="cls-1" d="M135.63,100.4c6.12,6.86-19.59,39.28-18.66,63.51,0,0-10.65,26,52,62.59h0a110.4,110.4,0,0,1-24.9-10.09C137,212.48,122,204.1,111,188c-15.31-22.46-13.94-47.12-13-56l7.74-22.54h0A47.92,47.92,0,0,1,118,95c4.34-3.37,12.2-8.13,12-8h0a19,19,0,0,0,1,6A20,20,0,0,0,135.63,100.4Z" transform="translate(-12.86 -28)"/></g><g id="Layer_17" data-name="Layer 17"><path class="cls-2" d="M100.6,277.8l-27-141.53s.4-70.79,47.3-96.05,94.43,0,94.43,0,32.18,17.4,40,53.89c0,0,16.27,13.66,17.11,192.91" transform="translate(-12.86 -28)"/><path class="cls-3" d="M141.79,71.47s8.2,33.16,59.73,32.94C201.52,104.4,160.14,99.13,141.79,71.47Z" transform="translate(-12.86 -28)"/><path class="cls-3" d="M173.57,67.47s8.2,33.16,59.73,32.94C233.3,100.4,191.93,95.13,173.57,67.47Z" transform="translate(-12.86 -28)"/><path class="cls-3" d="M112.39,185.21s-22.12,26,8.15,67.72C120.54,252.93,100.65,216.27,112.39,185.21Z" transform="translate(-12.86 -28)"/><path class="cls-3" d="M133.48,193.85s-22.12,26,8.15,67.72C141.63,261.57,121.74,224.91,133.48,193.85Z" transform="translate(-12.86 -28)"/><path class="cls-3" d="M231,200.41s24.07,24.24-2.89,68.15C228.07,268.55,245.06,230.47,231,200.41Z" transform="translate(-12.86 -28)"/><path class="cls-3" d="M249.91,193.64S274,217.88,247,261.79C247,261.79,264,223.7,249.91,193.64Z" transform="translate(-12.86 -28)"/></g><g id="Layer_19" data-name="Layer 19"><path class="cls-4" d="M129.5,87.5s-54,22-21,98c0,0,17.32,29.12,68.66,44.56,0,0,34.34,5.44,70.34-52.56,0,0,12-18-4-61,0,0-12-18.54-62,.23C181.52,116.73,134.5,122.5,129.5,87.5Z" transform="translate(-12.86 -28)"/></g><g id="Layer_23" data-name="Layer 23"><path class="cls-5" d="M155,117.78c.8-3,.28-4.25-.32-4.82s-1.65-.47-3.29-1.1a9.17,9.17,0,0,1-3.29-2.19c-16.39-.22-28.66,1.36-33.16,3.38a26.87,26.87,0,0,0-4.27,2.39c-1.48.89-3.35,2.44-6.2,6h0s13-3.63,20-4.4C124.54,117.07,151.36,112.1,155,117.78Z" transform="translate(-12.86 -28)"/></g><g id="shirt"><path class="cls-6" d="M154,252s12-8,9-17h50s4,1,3,11h0s3.48-.41,6.24,6.29h0L234,277l22,45v51l-4,50,1.86,52.5L148,475l-15-31-3-116,10-57,14-19" transform="translate(-12.86 -28)"/><ellipse class="cls-7" cx="230" cy="160.5" rx="16" ry="8.5" transform="translate(-39.26 18.85) rotate(-11)"/><ellipse class="cls-7" cx="139" cy="173.5" rx="16" ry="8.5" transform="translate(-43.42 1.72) rotate(-11)"/></g><g id="teeth"><path class="cls-8" d="M163.39,189.79,205,185.34l.87,7.8s-39.71,7.88-42.08,3.64S163.39,189.79,163.39,189.79Z" transform="translate(-12.86 -28)"/></g><g id="Layer_11" data-name="Layer 11"><path class="cls-9" d="M155.2,188.07s-1.42-.47-1,3.37,2.29-.26,2.29-.26,4.18,2.58,4.4,4.56l4.22,7.63s4,4.6,8.12,5.82a29.25,29.25,0,0,0,27.43-3.07s4.31-3.74,4.82-5.8c0,0,3.25-8.57,3.34-9.63,0,0,1.5-5.43,3.42-5.12,0,0,1.06.09,1,.83,0,0,1.39.16.77-2.51,0,0-1-3.89-2.43-1a2.23,2.23,0,0,1-2.19,2,22.63,22.63,0,0,1-4.48.4s1.83,6-5.54,7.88a111.5,111.5,0,0,1-19.44,3c-9.21.4-12.76-.26-14.05-1.48s-1.22-.6-2.56-5l-5.19.58s-2,0-1.92-1.15C156.27,189.21,156.06,187.46,155.2,188.07Z" transform="translate(-12.86 -28)"/></g><g id="Layer_12" data-name="Layer 12"><path class="cls-10" d="M163.24,190s16.44-17.09,42.24-4.73Z" transform="translate(-12.86 -28)"/></g><g id="Layer_13" data-name="Layer 13"><path class="cls-10" d="M165.12,203.37A23.8,23.8,0,0,0,177,214.92c7,2.94,17.32,3.13,23.22-3.54,2.52-2.84,5.77-7.53,5.16-10.56a27.59,27.59,0,0,1-11.73,8.73c-1.68.64-10.7,3.91-20.33-.38A25.83,25.83,0,0,1,165.12,203.37Z" transform="translate(-12.86 -28)"/></g><g id="Layer_14" data-name="Layer 14"><path class="cls-11" d="M169.91,208c.64-.7,6.8-7.18,16-6.12a18.92,18.92,0,0,1,12,6.51,30,30,0,0,1-8.54,2.92,29.18,29.18,0,0,1-14.26-.95A27.12,27.12,0,0,1,169.91,208Z" transform="translate(-12.86 -28)"/></g><g id="Layer_15" data-name="Layer 15"><path class="cls-12" d="M179,166c-2.33-1-4.56-.68-5.5.56A2.63,2.63,0,0,0,173,168s-1,5,8,5c0,0,10,0,9-7,0,0-2-2-5,0a3.91,3.91,0,0,1-1.5,1C181.29,167.8,179.18,166.15,179,166Z" transform="translate(-12.86 -28)"/></g><g id="Layer_5" data-name="Layer 5"><path class="cls-13" d="M213,292l-1-14s-5-41,0-54a5.64,5.64,0,0,0-6,0s-3,1-3,9c0,0,0,12-6,14l-41-27s-7-3-7,0c0,0-2,2,0,5l24,15s-3-3-4,1c0,0-9-3-7,9,0,0-9-1-7,7,0,0-6,2-3,7a115.81,115.81,0,0,0,10.13,12.25A118.11,118.11,0,0,0,194,300a10.87,10.87,0,0,1,19-8Z" transform="translate(-12.86 -28)"/></g><g id="Layer_4" data-name="Layer 4"><path class="cls-14" d="M154,253s-38-6-53,17c0,0-35,43-45,50,0,0-45,41-42,50,0,0-4,19,32,47,0,0,30,42,41,47a41.38,41.38,0,0,0,12-12c8.49-13.09,6.67-27,6-31a96.6,96.6,0,0,1-43.5-43.5s38-50,48-50c0,0,0,28,14,37,0,0,19,50-10,84,0,0-15,6-14,25l49,2s6-78,5-83-16-77-14-81S139.5,272.5,154,253Z" transform="translate(-12.86 -28)"/><path class="cls-15" d="M22,459" transform="translate(-12.86 -28)"/><path class="cls-14" d="M216.5,246.5s35-7,46,6c0,0,16,16,29,92,0,0,9,51-14,56,0,0-16,2-23-3,0,0,34,57,31,78h-42l-11-99-52-85,31-17,21,30S226.5,244.5,216.5,246.5Z" transform="translate(-12.86 -28)"/><path class="cls-16" d="M193.26,145.35s0-24.72,13.51-29.09c0,0,13.26-5.67,21.65,3.72,0,0-10.59-8.51-24.25,2C204.18,121.95,194.53,132.52,193.26,145.35Z" transform="translate(-12.86 -28)"/><path class="cls-17" d="M157.57,150.41s-6.1-15.74-15.59-20.59c0,0-11.83-6-21.14.56,0,0-4.26,2.79-5.17,6.4,0,0-2.12,3.35-11.3.16,0,0,3,4.76,10.36,5.66l.23,2.19s-6.88,2.55-9.7.51c0,0,5.8,5.63,12.45,3.36,0,0,5.07,6.1,6.57,6.72,0,0-5.08-7.4-3.78-11,0,0-.24-7.13,11-8.85C131.52,135.49,146.8,131.13,157.57,150.41Z" transform="translate(-12.86 -28)"/><path class="cls-16" d="M157.57,150.41s-5.17-24.17-19.32-25.6c0,0-14.16-2.76-20.38,8.19,0,0,8.56-10.54,24.12-3.18C142,129.82,153.63,138.13,157.57,150.41Z" transform="translate(-12.86 -28)"/><path class="cls-8" d="M193.28,145.48s-1.08,8.18,8.29,5.75c0,0,13.53,0,21.08-4.84S230,134.81,230,134.81L227.92,125l-12.7-2-14.7,6.12-5.08,8.48Z" transform="translate(-12.86 -28)"/><path class="cls-8" d="M157.58,150.54s2.78,7.77-6.89,7.37c0,0-13.23,2.84-21.63-.3s-9.62-9.77-9.62-9.77l0-10,12-4.66L147.06,136l6.75,7.22Z" transform="translate(-12.86 -28)"/><path class="cls-17" d="M193.26,145.35s2.65-16.67,10.91-23.4c0,0,10.3-8.38,20.79-3.9,0,0,4.75,1.84,6.4,5.17,0,0,2.77,2.83,11.08-2.22,0,0-1.91,5.28-8.94,7.71l.23,2.19s7.27,1,9.59-1.54c0,0-4.49,6.72-11.47,5.9,0,0-3.68,7-5,7.95,0,0,3.41-8.3,1.37-11.59,0,0-1.27-7-12.64-6.33C215.59,125.29,199.74,124.24,193.26,145.35Z" transform="translate(-12.86 -28)"/><path class="cls-18" d="M196.15,138.28s2.51,10.14,10.65,10.84,16.53-3.58,17.93-10-2-12.92-2-12.92-2-4.47-13.34-1.31-10.84,7.58-10.84,7.58A8.93,8.93,0,0,0,196.15,138.28Z" transform="translate(-12.86 -28)"/><path class="cls-18" d="M153.25,144.1s-.32,10.44-8.13,12.83-16.91,0-19.63-6-.74-13.06-.74-13.06,1-4.79,12.77-4.09,12.19,5.13,12.19,5.13A8.93,8.93,0,0,1,153.25,144.1Z" transform="translate(-12.86 -28)"/><path class="cls-19" d="M196.32,138.3c.33-.18,1.51,2.82,4.57,5.44A19.31,19.31,0,0,0,211.44,148s8.27-.58,10.92-6.8a17,17,0,0,0,1.42-4.81,18,18,0,0,0-1.95-10.66l.8.11a16.9,16.9,0,0,1,2.41,9c0,1.59.51,6.57-3.31,9.44a23,23,0,0,1-8.56,4.38c-2.21.53-6.07,1.42-9.78-.51a11.46,11.46,0,0,1-2.74-2C197.19,142.82,195.93,138.52,196.32,138.3Z" transform="translate(-12.86 -28)"/><path class="cls-19" d="M153.1,144.16c-.36-.11-.89,3.08-3.33,6.28a19.31,19.31,0,0,1-9.42,6.38s-8.21,1.17-12.11-4.35a17,17,0,0,1-2.4-4.41,18,18,0,0,1-.34-10.83l-.76.27a16.9,16.9,0,0,0-.46,9.32c.37,1.55.88,6.53,5.22,8.53a23,23,0,0,0,9.29,2.49c2.28.06,6.24.11,9.46-2.55a11.46,11.46,0,0,0,2.24-2.57C153.2,148.76,153.52,144.29,153.1,144.16Z" transform="translate(-12.86 -28)"/><path d="M203,129.87a8.68,8.68,0,0,0,2.55,11.69c6.71,5.13,12.74-2.8,12.74-2.8S223.13,127.58,211,125C211,125,203,125.7,203,129.87Z" transform="translate(-12.86 -28)"/><path d="M144.84,137.31a8.68,8.68,0,0,1,0,12c-5.48,6.42-13-.06-13-.06s-7.13-9.9,4.16-14.93C135.92,134.28,143.89,133.25,144.84,137.31Z" transform="translate(-12.86 -28)"/></g><g id="Layer_2" data-name="Layer 2"><path class="cls-20" d="M150,406s-20.5-3.2-45.75,19.4c0,0,.93,12.34-11.66,33.47,0,0,10.41,5.13,24.41-5.87,0,0,14-12,30-12,0,0,7-4,1-8a35.52,35.52,0,0,0-5.91-.63c-4.56-.11-10.64.61-14.09,4.63,0,0,5-8,26-6,0,0,4-3,0-6,0,0-19-1-26,3,0,0,0-4,27-4,0,0,5,1,5-4,0,0,0-5-5-4,0,0-23-3-29,4,0,0,6-7,26-7,0,0,3,0,3-4C155,409,155,406,150,406Z" transform="translate(-12.86 -28)"/></g><g id="Layer_24" data-name="Layer 24"><path class="cls-21" d="M256,311a63.77,63.77,0,0,1,5,21s.11,1.9,0,16h0a35.55,35.55,0,0,0,2.55-9.58C265.14,325.11,258.59,314.69,256,311Z" transform="translate(-12.86 -28)"/><path class="cls-21" d="M113,307s-5.2,16-3.1,27,4.1,27,14.1,30C124,364,106,340,113,307Z" transform="translate(-12.86 -28)"/><path class="cls-21" d="M116,349a40.91,40.91,0,0,0,9.94,2,41.88,41.88,0,0,0,18.75-3L153,393l2,13s-15.73-1.4-26.37,3.8c.3-23.9-2.34-41.37-4.63-45.8a34,34,0,0,0-3-5,9.64,9.64,0,0,1-5-6A8.63,8.63,0,0,1,116,349Z" transform="translate(-12.86 -28)"/><path class="cls-21" d="M232,376l21,21,16.94,29.19s-13.2-16.49-33.07-16.84C236.87,409.35,235,381,232,376Z" transform="translate(-12.86 -28)"/></g><g id="Layer_25" data-name="Layer 25"><path class="cls-22" d="M145,348s52,3,87,28h0l3,33s-78-3-80-3h0l-.6-3.91L155,394l-10-46" transform="translate(-12.86 -28)"/><path class="cls-21" d="M28,369s24-5,33,9C61,378,56,357,28,369Z" transform="translate(-12.86 -28)"/></g><g id="Layer_6" data-name="Layer 6"><path class="cls-21" d="M255.85,341s16.43,20.25,12.31,38.9C268.16,379.92,282.09,350.83,255.85,341Z" transform="translate(-12.86 -28)"/></g><g id="Layer_7" data-name="Layer 7"><polyline class="cls-21" points="219.14 276 235.14 303 259.14 336 219.14 276"/></g></svg>